<svg height="512pt" viewBox="-27 0 512 512.00002" width="512pt" xmlns="http://www.w3.org/2000/svg"><path d="m19.097656 458.230469v46.164062h419.9375v-496.789062h-419.9375v46.164062" fill="#72cec0"/><path d="m439.035156 458.234375c-115.082031 12.1875-230.15625 14.355469-345.226562 6.5-.011719 0-.011719 0-.023438 0-24.890625-1.695313-49.789062-3.863281-74.691406-6.5-15.398438-134.824219-15.398438-269.648437 0-404.460937 139.984375-14.832032 279.960938-14.832032 419.941406 0 1.15625 10.140624 2.230469 20.277343 3.214844 30.417968v.058594c.984375 10.148438 1.886719 20.296875 2.6875 30.445312 9.144531 114.507813 7.167969 229.023438-5.902344 343.539063zm0 0" fill="#c9fff7"/><path d="m439.035156 458.234375c-115.082031 12.1875-230.15625 14.355469-345.226562 6.5 291.96875-9.117187 352.621094-244.71875 351.128906-350.039063 9.144531 114.507813 7.167969 229.023438-5.902344 343.539063zm0 0" fill="#72cec0"/><path d="m237.558594 94.964844h-158.089844c-20.925781 0-37.890625 16.960937-37.890625 37.886718 0 13.476563 7.042969 25.300782 17.640625 32.015626v159.378906c0 11.191406 9.070312 20.265625 20.261719 20.265625h158.066406c11.191406 0 20.261719-9.074219 20.261719-20.265625v-159.378906c10.597656-6.714844 17.640625-18.539063 17.640625-32.015626 0-20.925781-16.964844-37.886718-37.890625-37.886718zm0 0" fill="#f7d360"/><path d="m302.9375 272.300781s36.363281-50.910156 91.636719-23.273437c55.273437 27.636718 27.636719 202.183594-91.636719 176.070312-119.273438 26.117188-146.910156-148.433594-91.636719-176.070312 55.273438-27.636719 91.636719 23.273437 91.636719 23.273437zm0 0" fill="#fc5f61"/><path d="m286.558594 427.5c-105.339844 7.460938-127.910156-152.152344-75.257813-178.46875 19.261719-9.632812 36.234375-9.722656 50.164063-5.761719-2.574219 1.320313-5.25 3.207031-8.007813 5.761719-27.132812 25.113281-17.277343 171.5625 33.101563 178.46875zm0 0" fill="#e83842"/><path d="m442.25 84.25c0-.019531-.007812-.039062-.007812-.058594h.007812zm0 0" fill="#72cec0"/><path d="m59.214844 281.753906c-4.203125 0-7.605469 3.402344-7.605469 7.601563v34.886719c0 15.367187 12.503906 27.871093 27.871094 27.871093h102.652343c.871094 3.117188 1.835938 6.1875 2.898438 9.191407 8.828125 24.992187 23.289062 45.011718 41.8125 57.890624 21.3125 14.820313 47.585938 19.535157 76.09375 13.675782 7.945312 1.632812 15.714844 2.445312 23.253906 2.445312 19.507813 0 37.46875-5.433594 52.835938-16.121094 18.527344-12.878906 32.984375-32.898437 41.8125-57.890624 8.015625-22.6875 10.613281-48.175782 7.128906-69.929688-3.832031-23.9375-14.488281-41.394531-29.996094-49.148438-31.582031-15.789062-57.542968-7.902343-73.757812 1.496094-6.351563 3.679688-11.695313 7.851563-15.933594 11.683594-1.1875-15.933594.910156-41.800781 24.238281-53.460938 3.753907-1.878906 5.277344-6.445312 3.402344-10.203124-1.878906-3.753907-6.445313-5.277344-10.203125-3.398438-19.136719 9.566406-30.390625 27.40625-32.539062 51.582031-.355469 4.011719-.429688 7.875-.332032 11.457031-3.277344-2.609374-7.015625-5.242187-11.1875-7.660156-4.648437-2.691406-10.097656-5.257812-16.246094-7.183594v-67.722656c11.121094-8.59375 17.640626-21.746094 17.640626-35.960937 0-12.152344-4.734376-23.578125-13.328126-32.171875-8.589843-8.589844-20.011718-13.320313-32.164062-13.320313h-158.089844c-25.085937 0-45.492187 20.40625-45.492187 45.492188 0 7.789062 2.011719 15.492187 5.824219 22.273437 2.984374 5.300782 7.019531 9.96875 11.804687 13.683594v90.128906c0 4.199219 3.402344 7.601563 7.605469 7.601563 4.199218 0 7.601562-3.402344 7.601562-7.601563v-94.066406c0-2.609375-1.332031-5.03125-3.535156-6.425781-4.222656-2.671875-7.757812-6.402344-10.222656-10.773438-2.53125-4.507812-3.871094-9.632812-3.871094-14.820312 0-16.695313 13.585938-30.28125 30.285156-30.28125h158.089844c8.089844 0 15.695312 3.148437 21.410156 8.863281 5.722656 5.722656 8.875 13.332031 8.875 21.417969 0 10.421875-5.273437 19.992187-14.109375 25.597656-2.199219 1.394531-3.53125 3.820313-3.53125 6.421875v68.628906c-12.390625-1.105468-26.65625.898438-42.308593 8.726563-28.046876 14.023437-35.941407 55.800781-29.199219 94.675781h-99.21875c-6.980469 0-12.660157-5.679688-12.660157-12.664062v-34.882813c-.003906-4.203125-3.40625-7.605469-7.605468-7.605469zm155.484375-25.921875c10.605469-5.304687 20.421875-7.390625 29.304687-7.390625 31.800782 0 51.632813 26.742188 52.75 28.285156 1.421875 1.992188 3.722656 3.167969 6.167969 3.171876h.019531c2.441406 0 4.742188-1.183594 6.171875-3.160157 1.339844-1.859375 33.410157-45.234375 82.058594-20.910156 23 11.5 30.164063 58.421875 15.332031 100.410156-5.414062 15.320313-16.078125 36.511719-36.15625 50.472657-18.410156 12.800781-40.542968 16.484374-65.785156 10.960937-1.074219-.234375-2.179688-.234375-3.253906 0-25.238282 5.527344-47.375 1.839844-65.78125-10.960937-20.078125-13.960938-30.746094-35.152344-36.15625-50.472657-14.835938-41.988281-7.671875-88.910156 15.328125-100.40625zm0 0"/><path d="m454.152344 136.210938c-.28125-4.191407-3.925782-7.359376-8.097656-7.078126-4.191407.28125-7.359376 3.90625-7.074219 8.097657 7.019531 104.1875 4.722656 209.824219-6.820313 314.074219-134.792968 13.859374-271.390625 13.859374-406.191406 0-14.347656-129.628907-14.347656-260.980469 0-390.609376 134.800781-13.855468 271.398438-13.855468 406.191406 0 1.46875 13.238282 2.796875 26.578126 3.957032 39.734376.367187 4.183593 4.058593 7.273437 8.242187 6.90625 4.183594-.371094 7.273437-4.058594 6.90625-8.242188-1.335937-15.152344-2.894531-30.539062-4.625-45.742188v-45.746093c0-4.199219-3.40625-7.605469-7.605469-7.605469h-419.9375c-4.203125 0-7.605468 3.40625-7.605468 7.605469v45.75c-15.324219 134.46875-15.324219 270.824219 0 405.292969v45.746093c0 4.199219 3.402343 7.605469 7.605468 7.605469h419.9375c4.199219 0 7.601563-3.40625 7.601563-7.605469v-45.757812c12.191406-106.980469 14.722656-215.457031 7.515625-322.425781zm-22.722656-121.003907v30.136719c-134.328126-13.652344-270.398438-13.652344-404.730469 0v-30.136719zm-404.730469 481.585938v-30.136719c67.164062 6.824219 134.765625 10.25 202.367187 10.25 67.601563 0 135.199219-3.425781 202.363282-10.25v30.136719zm0 0"/><path d="m117.816406 149.207031c-2.9375-1.933593-6.910156-1.613281-9.46875.816407-2.210937 2.101562-2.9375 5.398437-1.84375 8.238281 1.15625 3.003906 4.175782 5 7.398438 4.871093 2.929687-.117187 5.589844-1.996093 6.710937-4.695312 1.363281-3.285156.183594-7.265625-2.796875-9.230469zm0 0"/><path d="m93.949219 208.175781c3.113281 1.285157 6.851562.324219 8.914062-2.355469 1.898438-2.457031 2.113281-5.902343.519531-8.574218-1.589843-2.664063-4.761718-4.117188-7.820312-3.582032-3.148438.550782-5.625 3.054688-6.1875 6.1875-.625 3.476563 1.34375 6.953126 4.574219 8.324219zm0 0"/><path d="m137.34375 181.519531c-1.191406-2.871093-4.097656-4.765625-7.207031-4.691406-3.0625.074219-5.796875 2.023437-6.902344 4.867187-1.078125 2.769532-.402344 6.011719 1.710937 8.109376 2.402344 2.390624 6.167969 2.882812 9.117188 1.230468 3.328125-1.863281 4.683594-6.003906 3.28125-9.515625zm0 0"/><path d="m213.714844 220.585938c1.78125 2.699218 5.242187 3.964843 8.351562 3.097656 2.933594-.816406 5.136719-3.359375 5.519532-6.382813.855468-6.753906-7.324219-11.113281-12.484376-6.722656-2.910156 2.472656-3.46875 6.835937-1.386718 10.007813zm0 0"/><path d="m144.582031 315.078125c1.179688 2.792969 3.976563 4.691406 7.027344 4.691406 3.027344 0 5.875-1.890625 7.027344-4.691406 1.203125-2.925781.4375-6.429687-1.921875-8.546875-2.511719-2.257812-6.308594-2.605469-9.167969-.789062-3.125 1.984374-4.300781 5.917968-2.964844 9.335937zm0 0"/><path d="m143.425781 277.320312c-1.238281-2.921874-4.207031-4.847656-7.398437-4.683593-3.183594.160156-5.964844 2.34375-6.898438 5.386719-2.023437 6.59375 5.488282 12.269531 11.292969 8.652343 3.136719-1.953125 4.367187-5.941406 3.003906-9.355469zm0 0"/><path d="m120.855469 296.714844c-2.9375-1.933594-6.902344-1.613282-9.464844.816406-2.402344 2.28125-3.03125 5.972656-1.546875 8.925781 2.964844 5.902344 11.835938 5.265625 13.972656-.949219 1.101563-3.203124-.117187-6.921874-2.960937-8.792968zm0 0"/></svg>