<?xml version="1.0" encoding="UTF-8" standalone="no"?>
<!-- Created with Inkscape (http://www.inkscape.org/) -->

<svg
   xmlns:dc="http://purl.org/dc/elements/1.1/"
   xmlns:cc="http://creativecommons.org/ns#"
   xmlns:rdf="http://www.w3.org/1999/02/22-rdf-syntax-ns#"
   xmlns:svg="http://www.w3.org/2000/svg"
   xmlns="http://www.w3.org/2000/svg"
   xmlns:sodipodi="http://sodipodi.sourceforge.net/DTD/sodipodi-0.dtd"
   xmlns:inkscape="http://www.inkscape.org/namespaces/inkscape"
   id="svg3039"
   sodipodi:docname="sandwhichanddrink.svg"
   viewBox="0 0 4200 2560"
   version="1.1"
   inkscape:version="0.91 r13725"
   width="4200"
   height="2560">
  <defs
     id="defs3043">
    <linearGradient
       id="linearGradient5153"
       y2="-875.09003"
       gradientUnits="userSpaceOnUse"
       x2="730.96002"
       y1="-875.09003"
       x1="579.46997"
       inkscape:collect="always">
      <stop
         id="stop4544"
         style="stop-color:#fab145"
         offset="0" />
      <stop
         id="stop4550"
         style="stop-color:#fbc678"
         offset=".70132" />
      <stop
         id="stop4546"
         style="stop-color:#faaf42"
         offset="1" />
    </linearGradient>
  </defs>
  <sodipodi:namedview
     id="namedview3041"
     bordercolor="#666666"
     inkscape:pageshadow="2"
     guidetolerance="10"
     pagecolor="#ffffff"
     gridtolerance="10"
     inkscape:window-maximized="1"
     inkscape:zoom="0.10087025"
     objecttolerance="10"
     borderopacity="1"
     inkscape:current-layer="g5426"
     inkscape:cx="4569.9709"
     inkscape:cy="671.06639"
     inkscape:window-y="1"
     inkscape:window-x="4"
     inkscape:window-width="1916"
     showgrid="false"
     inkscape:pageopacity="0"
     inkscape:window-height="1035" />
  <g
     id="g5426"
     inkscape:export-ydpi="300"
     inkscape:export-xdpi="300"
     inkscape:export-filename="/home/nara/GUNGA/NUTRIfamily/paginas/DESENHOS CARTILHA/HORA014.png">
    <g
       id="g4510"
       transform="matrix(8.0480922,0,0,6.2564743,-2100.4734,6651.9719)">
      <path
         id="path3051-8-6"
         d="m 699.53,-1040.3 c -39.382,0.6291 -79.151,3.3541 -117.38,12.969 -4.5478,0.723 -7.7337,5.2794 -12.312,4.3125 -7.6123,1.3028 -9.0248,10.529 -8.5625,16.938 -1.131,22.071 1.8498,44.359 4.1562,66.031 -2.964,3.2296 -3.0215,8.2549 0.6875,11 4.7912,8.4554 3.1339,18.672 6.0339,27.808 2.3674,5.132 -0.14393,5.501 -4.6277,4.2235 -28.462,-4.2922 -57.254,-0.82417 -85.605,2.6191 -29.428,2.9359 -58.878,4.1985 -88.266,6.7639 -20.489,0.78667 -41.056,6.2216 -58.598,16.836 -8.7039,4.2597 -8.5339,15.304 -6.3027,23.4 0.65754,6.7335 3.749,13.943 2.7402,20.225 -8.5796,0.3404 -14.652,9.2685 -12.844,17.469 0.7111,3.5773 -3.0077,-1.4178 -5.125,-0.96875 -6.5443,-1.4409 -10.161,5.6532 -14.344,9.25 -3.5532,3.5319 -4.0457,9.4416 0.4375,12.469 2.5928,2.3595 5.7376,4.1252 8.125,6.625 -7.4841,-0.11953 -13.131,7.7105 -10.625,14.781 2.63,8.9769 12.992,11.684 21.312,11.156 2.7056,1.0813 -1.2792,4.9341 -2.3125,6.5 -4.5734,4.2627 -10.143,12.473 -4.4375,18 4.3909,4.0948 10.898,3.1298 16.406,3.7188 -2.967,5.6569 -5.0375,14.149 1.4375,18.312 1.9098,2.3476 7.4917,-0.49792 6.9062,3.625 1.5508,13.454 10.373,26.192 23.531,30.438 22.537,9.4922 48.038,4.4271 70.081,-3.8558 15.181,-5.1636 31.511,-7.8773 47.439,-4.1171 32.118,5.3714 64.349,13.05 97.137,9.9104 22.298,-1.8416 46.105,-9.1993 60.75,-26.875 4.2908,-6.6031 3.4709,-15.024 3.875,-22.469 3.9327,0.83383 5.954,7.0551 10.562,4 5.5789,-4.3568 4.3834,-13.899 7.0938,-18.719 5.5547,3.8095 13.76,2.6148 17.219,-3.4688 3.585,-4.5766 2.7474,-11.326 0.21875,-15.812 6.5396,-2.5105 9.4744,-11.18 4.9375,-16.875 -0.51968,-2.324 -5.996,-4.1412 -2.5,-6.2188 6.6483,-3.5732 10.687,-11.329 8.625,-18.875 -0.76687,-3.8894 6.7577,-1.8754 9.6734,-3.3234 7.1666,-1.0436 14.544,-3.1084 21.514,-0.61414 6.6158,1.0948 10.877,-5.2103 11.844,-11.031 7.5292,-24.176 8.9171,-49.884 11.974,-74.959 4.4119,-44.718 6.6544,-89.61 8.9011,-134.48001 -4.709,-9.9395 -15.129,-16.2 -26.125,-15.969 -7.858,-0.7496 -15.769,-0.8103 -23.656,-0.75 z m -12.844,17.187 c 10.293,0.1559 20.604,0.01 30.875,0.8126 -28.51,9.4556 -59.076,10.909 -88.933,13.639 -13.622,0.9657 -27.954,1.525 -41.161,-0.6391 0.90333,-1.631 0.48501,-3.7571 -0.71875,-5.125 33.349,-2.4758 66.438,-8.3508 99.938,-8.6876 z m 44.688,15.969 c -2.0898,19.583 -2.6059,39.757 -4.9688,59.031 -5.683,-6.6756 -15.421,-6.035 -23.281,-7.875 -21.759,-2.537 -43.913,-1.9811 -65.812,-1.2188 -18.144,1.4548 -36.322,4.2657 -53.875,8.9688 -3.1594,1.6845 -1.3684,-6.8138 -2.6902,-8.7532 -1.7536,-12.545 -3.0736,-25.147 -3.6223,-37.841 15.793,7.238 33.942,5.0213 50.841,4.5578 33.351,-2.3595 66.939,-6.6261 98.937,-16.381 0.81542,0.2552 5.6622,-3.2931 4.4712,-0.4891 z m -73.906,63.562 c 3.4604,0.27426 12.314,-1.2363 5.6562,2.7188 -2.0454,1.3326 -6.8228,6.276 -7.625,1.7188 0.0419,-1.9056 -5.3122,-4.9804 -1.3751,-4.3895 1.1146,-0.0157 2.2292,-0.0332 3.3439,-0.048 z m -20.844,1.4375 c -3.5754,0.98329 -8.5149,4.0043 -11.719,1.6562 0.22357,-1.9595 7.7792,-1.0751 10.75,-1.9375 0.88672,0.0347 3.797,-0.61019 0.96875,0.28125 z m 39.938,10.062 c 15.585,4.6069 33.835,8.9611 48.844,0.34375 -2.1867,36.926 -6.649,73.707 -13.469,110.03 -2.5216,2.5736 -8.0591,1.1191 -11.75,2.3438 -7.2013,0.75126 -16.164,2.7925 -22.375,2.3125 3.1985,-4.366 4.1296,-13.035 -2.4688,-14.5 -11.233,-2.5123 -23.142,1.7141 -32.75,5.5625 -0.47264,-13.259 2.5567,-28.355 -6.6562,-39.469 -11.238,-15.666 -30.188,-23.616 -48.531,-27.688 -0.63893,-11.055 -0.67336,-22.164 -2.125,-33.156 10.125,0.36266 20.857,0.65716 30.125,-3.9375 5.9762,4.8446 14.303,4.6771 21.188,1.875 3.5091,-0.45484 8.5066,-4.8094 10.219,0.1875 6.3367,7.7612 17.743,4.3618 24.188,-1.3438 1.7234,-1.1298 3.4893,-2.3107 5.5625,-2.5625 z m -138.88,52.04 c 24.116,0.50205 49.094,3.2715 70.906,14 9.5265,4.759 18.428,14.295 16.25,25.781 -1.2233,13.593 -12.261,23.775 -24.719,27.969 -28.178,11.553 -59.151,14.693 -89.432,16.198 -25.43,1.4644 -51.916,0.11709 -75.724,10.458 -16.29,6.5556 -34.548,12.347 -51.876,6.1605 -9.3887,-2.5697 -20.681,-5.2962 -26.281,-13.754 -3.7734,-11.484 8.4561,-19.327 11.094,-29.469 3.3272,-9.4867 -1.8444,-19.22 -9.3125,-24.938 -3.6551,-3.6813 -9.4373,-6.3811 -11.344,-11.188 3.1188,-7.8232 13.238,-5.7785 19.656,-8.6562 25.186,-6.2027 51.334,-7.6708 77.156,-10 27.817,-0.60393 55.671,-0.1257 83.459,-2.0571 3.3888,-0.16664 6.7773,-0.34664 10.166,-0.50537 z m -190.72,42.5 c 4.4542,2.9687 9.2193,9.0582 4.375,14.031 -1.9664,1.9858 -4.8702,-3.7445 -6.0938,-6.2188 -0.82422,-2.9579 0.73755,-5.85 0.4375,-8.875 l 0.76976,0.63834 0.51149,0.42416 z m 313.47,20.406 c -1.308,1.479 -3.4508,2.2007 -5.375,1.5938 1.8115,-0.56691 3.6115,-1.2858 5.375,-1.5938 z m -324.59,2.3125 c 2.8167,1.3655 4.6592,4.9793 5.9375,7.4062 -5.2061,19.969 2.2064,40.249 4,60.031 3.257,7.6008 12.245,10.159 18.844,13.969 18.814,8.4714 40.5,8.9728 60.5,4.7812 -5.5908,1.424 -7.5632,8.5943 -3.75,12.812 2.3127,2.2601 3.8338,5.9738 -0.21875,7.4688 -2.0147,1.6509 -0.95132,-3.6191 -2.1875,-4.6875 -2.5868,-9.3404 -15.581,-14.066 -22.969,-7.375 -4.5129,3.8711 -0.90677,9.4145 -0.28125,13.938 -0.27143,1.5152 -3.7353,2.742 -4.2188,1.9375 -0.53544,-10.007 -13.264,-19.417 -22.219,-12.719 -2.3113,1.514 -4.3262,3.7973 -7.0625,4.4688 -0.62848,-6.5203 -5.2852,-15.469 -13.094,-13.094 -3.3001,0.94076 -5.958,3.1967 -9.1875,4.1875 2.7769,-6.184 3.7236,-16.64 -4.4062,-19 -2.6689,-1.1746 -7.8005,0.0312 -8.9688,-1.0938 5.7201,-6.4278 9.6494,-18.261 1.875,-24.688 -3.9562,-3.6713 -12.589,-2.4873 -15.406,-3.8125 8.8697,-0.96759 11.923,-13.3 5.625,-19.094 -1.9361,-3.0059 -6.3357,-5.2784 -7.7188,-7.75 1.4018,-1.4322 2.2671,2.9561 4.0625,3.1562 5.6356,4.8318 17.072,3.2918 17.656,-5.3125 0.81939,-4.8805 -1.8192,-10.35 0.40625,-14.844 0.87048,-0.39837 1.8502,-0.50512 2.7812,-0.6875 z m 306.31,6.0625 c 2.7498,4.4518 9.2712,3.901 12.781,6.5938 -5.6239,21.043 -10.572,42.727 -13.344,64.531 -8.034,-4.8868 -17.464,-6.4009 -26.594,-8.1875 0.45287,-3.4426 -1.577,-7.8096 -0.65625,-10.625 6.3729,-3.297 16.127,-2.8662 19.566,-9.9986 3.7121,-13.696 3.3442,-28.539 7.2779,-41.97 0.19401,0.0795 0.86346,-1.1569 0.96875,-0.34375 z m -16.188,2.7812 c -1.4019,9.875 -3.2454,19.682 -4.8125,29.531 -32.392,11.519 -67.187,13.268 -101.37,12.461 -17.237,0.17262 -34.571,-0.25131 -51.75,0.44567 -21.908,8.875 -43.24,22.219 -67.75,21.031 -14.291,-0.0943 -28.531,-3.3513 -40.312,-11.688 -1.9749,-6.1634 -2.93,-12.626 -3.9688,-19.031 21.686,11.608 48.309,15.904 71.906,7.25 15.313,-4.5248 29.995,-12.461 46.406,-11.438 44.539,-2.4403 90.775,-2.0094 132.66,-19.156 6.8486,-3.0977 13.468,-6.8826 19.312,-11.688 l -0.3125,2.2812 z m 44.65,11.69 c -1.5071,2.4163 -1.5572,0.55853 0.21875,-0.5 l -0.21875,0.5 z m -8.2188,23.156 c 2.7839,2.0294 1.7215,3.1725 -0.53125,4.75 -1.9427,3.1396 0.6387,-4.3857 0.53125,-4.75 z m -3.0312,16.531 c 1.2688,1.77 0.93993,3.583 -0.5,1.4688 -0.0135,-0.51497 0.32629,-1.1256 0.5,-1.4688 z m -75.03,4.56 c -2.3305,1.1495 -3.1181,6.2933 -3.5,6.5312 -0.7449,-2.5049 -4.2382,-4.6829 -5.1875,-5.5625 2.5513,-0.24369 7.5804,-1.3707 8.6875,-0.96875 z m -96.562,2.1562 c 3.3791,-0.079 -2.2092,1.9133 -2.625,3.3125 -0.0257,-1.6102 0.69026,-3.5996 2.625,-3.3125 z m 18.969,0.625 c 3.0754,-0.70723 5.4464,2.8523 4.875,5.2812 -0.5072,-1.2175 -7.4443,-5.3828 -4.875,-5.2812 z m 39,1.0938 c 2.2239,0.42679 4.2916,2.7506 2,4.5625 -0.14531,2.8477 -2.8496,-4.7198 -2,-4.5625 z m -74.37,0.13 c 1.6221,3.0808 1.7635,9.2268 1.4375,10.938 -1.8558,-2.819 -6.0592,-6.6401 -5.4062,-9.8125 1.2161,-0.38305 2.7256,-1.4432 3.9688,-1.125 z m 126.34,6.5 c -0.95836,3.8098 -3.8065,3.4188 -2.1562,0.375 0.64917,-0.22744 1.5393,-0.20096 2.1562,-0.375 z m -144.41,1.375 c 1.1949,2.1236 3.5,5.8072 -0.40625,6.4688 0.56533,-1.9414 -2.5768,-6.7024 0.40625,-6.4688 z m 128.75,0.0625 c 1.8215,1.2387 0.46977,4.3925 0.0312,1.7188 0.063,0.0318 -0.32686,-2.7926 -0.0312,-1.7188 z m -12.188,0.125 c 0.75791,2.9406 -0.28825,6.3111 1.5312,8.9688 -1.797,-0.65788 -7.3189,0.52561 -4.1562,-2.3438 1.27,-2.0131 1.9676,-4.4782 2.625,-6.625 z m -73.312,1.75 c 2.6375,0.49742 4.1517,3.3347 6.125,5 -4.1,0.96561 -11.903,2.3352 -14.062,1.2812 3.0317,-1.5482 4.5282,-5.5666 7.9375,-6.2812 z m 115.25,2.9688 c -1.1821,1.4668 -0.26536,4.5482 -0.59375,5.2188 -2.1405,-0.97805 -4.5044,-0.98879 -2.0625,-3.2812 0.57689,-1.194 1.7131,-2.7864 2.6562,-1.9375 z m -174.31,1.5625 c -0.83771,0.47196 -6.0028,1.6569 -2.5312,0.625 0.17557,-0.0159 3.4549,-1.1979 2.5312,-0.625 z m 92.469,1.2188 c 7.7717,-0.7804 10.264,8.6411 16.781,11.094 -6.6577,-0.99946 -13.71,3.1709 -16.156,9.1875 -1.8883,-8.5313 -14.284,-13.873 -20.25,-6.25 -2.2087,1.6159 -3.4786,6.6706 -6.2812,6.4062 -3.2788,-3.788 -8.7368,-6.042 -13.281,-3.0625 -1.834,0.90379 -3.7678,3.0484 -4.6875,4.125 1.6171,-2.6893 2.3422,-6.1996 6.1875,-5.3125 13.515,-0.91815 26.047,-7.1612 36.156,-15.812 0.43392,-0.30236 0.99763,-0.32142 1.5312,-0.375 z m -64.75,9.3438 c 2.8427,1.735 6.2888,2.6676 8.9062,4.8125 -2.4266,4.9781 -6.0803,9.3325 -7.4688,14.75 -25.414,-0.36874 -48.259,13.123 -73.156,15.594 -8.8635,0.57946 -18.018,0.35852 -26.25,-3.2812 -0.19366,-3.6789 -3.713,-10.365 1.5312,-11.906 2.9532,-1.0786 5.7141,-5.2203 8.75,-4.8125 1.2361,5.0302 1.4577,11.536 6.9375,14.188 8.8742,4.2407 20.573,-1.8994 23.531,-10.625 0.72707,6.4512 7.5375,10.385 13.625,8.3125 6.5367,-1.5696 11.946,-6.6859 14.656,-12.781 7.2488,1.629 12.188,-5.6354 18.173,-8.3394 3.4694,-1.7677 7.0234,-5.8851 10.764,-5.9106 z m 127.03,3.35 c 0.35413,3.7171 6.1435,6.8336 4.0625,10.531 -4.9272,3.0635 -11.854,2.4461 -15.25,-2.5938 -2.1469,-1.5961 -4.4753,-2.9988 -6.9688,-3.9062 6.178,-0.30239 12.788,-2.629 18.156,-4.0312 z m -37.125,2.1562 c 2.8199,1.045 6.124,1.4533 9,1.875 -2.3154,1.3299 -4.117,3.4563 -5.3438,5.7812 -0.90604,-2.7958 -2.0735,-5.7075 -4.0938,-7.7812 l 0.4375,0.125 z m 53.156,1.9688 c 2.9905,4.3782 8.7448,6.2724 13.688,4 -3.2777,5.9819 -10.404,8.1846 -16.094,11.25 4.4796,-3.9448 5.2998,-10.517 2.4062,-15.25 z m -64.375,6.2188 c 3.9915,0.0464 1.8421,5.4347 4.125,7.5312 3.3159,7.4406 14.767,8.507 18.938,1.3125 1.1906,-3.4684 4.3286,-4.4922 6.6875,-1.5312 3.0209,2.9095 5.5926,6.9431 9.9062,8 -20.073,4.3305 -40.857,4.0312 -61.041,0.30328 -9.7741,-1.3961 -19.502,-3.0579 -29.021,-5.522 0.94747,-2.5788 2.1193,-2.811 3.75,-0.875 7.6056,4.8784 18.475,-0.13885 20.844,-8.4688 -0.019,4.7171 -0.8045,13.759 6.3438,14.969 9.4581,2.8401 19.09,-6.0913 18.438,-15.5 0.3253,-0.11897 0.67151,-0.22342 1.0312,-0.21875 z"
         style="fill:#000000"
         inkscape:connector-curvature="0" />
      <path
         id="path3051-8"
         d="m 697.98,-1036.3 c -40.387,-0.038 -102.25,7.3301 -117.72,14 -11.345,4.892 -2.9764,5.4644 27.781,1.9063 51.304,-5.9352 67.701,-7.1213 91.5,-6.5625 22.729,0.5338 30.06,1.3194 29.906,3.1875 -0.153,1.8591 -9.2317,5.5516 -20.906,8.5 -33.063,8.3501 -103.28,14.174 -121.75,10.094 -5.9852,-1.3224 -6.9605,-2.481 -4,-4.75 1.5232,-1.1674 1.5484,-1.4616 0.25,-2.3124 -1.5668,-1.0267 -5.8512,-0.4203 -7.4688,1.0624 -1.6978,1.5565 -2.6239,0.9209 -1.5624,-1.0624 1.6685,-3.1177 1.1847,-5.0438 -1.5313,-6.2813 -2.1863,-0.9961 -2.8516,-0.8334 -4.75,1.0625 -2.0488,2.0463 -2.2162,3.3076 -2.5313,17.438 -0.349,15.654 0.7869,32.396 3.4376,50.562 1.3625,9.3405 1.3728,10.542 -0.0313,12.094 -2.0748,2.2925 -1.9872,2.9935 0.8125,6 1.9222,2.0642 2.6884,4.7703 4.0625,14.062 0.9353,6.3251 2.3846,14.561 3.2187,18.313 0.8342,3.7511 1.3303,7.0135 1.0938,7.25 -0.2366,0.2364 -4.717,-0.2116 -9.9688,-1 -23.447,-3.5199 -40.369,-3.101 -82.781,2.0624 -11.275,1.3727 -29.725,2.9068 -41,3.4063 -11.275,0.4995 -24.325,1.3661 -29,1.9375 -4.675,0.5714 -15.475,1.5105 -24,2.0625 -18.027,1.1671 -22.017,2.0556 -39.406,8.8437 -13.003,5.076 -17.905,8.3061 -19.75,13.063 -0.9914,2.5552 -0.1235,9.9657 2.7812,23.656 0.8295,3.9095 1.3629,8.8595 1.1875,11 -0.3041,3.713 -0.4535,3.8953 -3.4687,3.5938 -2.3751,-0.2375 -3.9903,0.4066 -6.5,2.6562 -3.3316,2.9863 -3.35,3.0108 -3.1563,11.562 0.1094,4.8297 -0.2197,8.5937 -0.75,8.5937 -0.5177,10e-5 -2.7268,-1.6247 -4.9063,-3.5937 -2.7824,-2.5138 -4.5475,-3.4001 -5.9062,-2.9687 -2.5252,0.8013 -11.125,10.035 -11.125,11.937 0,0.8097 2.5455,3.4049 5.6562,5.7813 3.1106,2.3764 6.1044,5.0497 6.6563,5.9375 1.703,2.7394 0.0746,4.9062 -3.6875,4.9062 -4.9121,0 -8.0312,2.8562 -8.0312,7.375 0,6.5967 6.353,10.533 17.125,10.594 7.8036,0.0442 7.8677,6.0311 0.1562,14.469 -8.2622,9.0401 -5.7453,13.562 7.5938,13.562 7.885,0 8.5413,0.8677 5.5937,7.5313 -1.1434,2.5849 -2.0625,5.6257 -2.0625,6.75 0,2.9177 2.874,5.7007 5.9062,5.7187 3.8422,0.0227 4.7646,1.0106 5.5938,5.9688 1.0608,6.3425 3.1561,11.942 6.0938,16.188 4.9146,7.1025 17.253,13.112 30.406,14.844 13.826,1.8205 26.5,0.2331 43.5,-5.4687 14.315,-4.8014 29.244,-8.4992 35.031,-8.6875 9.876,-0.3213 21.932,1.1378 42.469,5.1875 26.553,5.236 41.353,6.9687 59.844,6.9687 30.265,-0.008 48.749,-5.0079 66.094,-17.812 9.0467,-6.679 11.062,-10.816 11.062,-22.688 0,-5.0467 0.2011,-9.3886 0.4688,-9.6562 1.1281,-1.1281 9.5587,1.6892 10.094,3.375 0.3093,0.9743 0.9752,1.7812 1.4687,1.7812 1.4728,0 2.6535,-3.0485 4.4376,-11.5 0.9287,-4.3999 1.8436,-8.5859 2.0624,-9.2812 0.2843,-0.9032 1.7843,-0.4975 5.25,1.4375 4.3972,2.455 5.1538,2.6035 7.9688,1.4375 1.8792,-0.7783 3.7728,-2.6875 4.7812,-4.8125 1.5357,-3.2366 1.5337,-3.8352 0.063,-7.6875 -2.1538,-5.6397 -2.0745,-6.2309 1.3437,-8.25 5.9701,-3.5267 6.0802,-8.8244 0.2813,-13.812 -3.3039,-2.8418 -2.4972,-6.1355 2.3124,-9.5313 6.0366,-4.2619 7.6688,-9.2097 5.3126,-15.969 -1.356,-3.8898 -0.2358,-4.9635 5.1562,-5.0625 1.925,-0.0355 8.45,-0.9172 14.5,-1.9375 9.6997,-1.6358 11.404,-1.6878 14.406,-0.4375 5.0611,2.1077 7.4791,0.1135 10.094,-8.3438 7.6369,-24.701 14.322,-89.157 19.062,-183.59 l 1.1563,-22.844 -2.9688,-4.1563 c -5.8292,-8.1881 -12.35,-9.6262 -44.312,-9.6563 z m 37.656,22.438 c 0.1083,-0.01 0.1901,0 0.2187,0.031 0.2285,0.2284 -0.066,4.6038 -0.6563,9.7188 -0.59,5.1149 -1.8007,19.888 -2.6874,32.812 -0.8867,12.925 -1.8144,24.513 -2.0626,25.75 -0.59,2.9436 -4.4224,2.9866 -7,0.0938 -2.9592,-3.3213 -7.2606,-4.6777 -20.594,-6.5312 -15.589,-2.1672 -58.286,-2.4535 -73.812,-0.5 -15.217,1.9145 -37.878,5.8506 -42.5,7.375 -4.3664,1.4398 -5.7885,4.2558 -2.6562,5.25 1.0769,0.3417 8.6455,-0.5061 16.812,-1.875 25.701,-4.3085 41.709,-5.7826 62.844,-5.8126 19.702,-0.0281 50.065,2.4239 51.844,4.1876 1.3617,1.3502 -1.1959,4.9837 -4,5.6874 -4.2268,1.0609 -16.251,-0.4152 -25.344,-3.0937 -11.743,-3.459 -13.866,-3.313 -18.062,1.0937 -1.8954,1.9907 -4.7875,4.1814 -6.4375,4.875 -7.5421,3.1702 -7.9881,3.0358 -10,-3 -1.3392,-4.0177 -4.0003,-4.2565 -12.062,-1.0312 -3.6059,1.4426 -8.6977,2.8778 -11.312,3.1875 -4.3239,0.5121 -4.9095,0.3174 -6.4688,-2.0625 -2.1381,-3.2632 -4.2345,-3.2711 -13.156,-0.125 -6.2811,2.215 -8.027,2.4096 -17,1.875 -5.5,-0.3276 -10.562,-1.1098 -11.25,-1.75 -2.3817,-2.2156 -8.9236,-61.264 -7,-63.188 0.3452,-0.3452 1.8934,0.2764 3.4375,1.375 10.043,7.1451 39.183,7.8906 83.812,2.1563 31.342,-4.0271 55.762,-9.1351 68.812,-14.406 2.9284,-1.1828 5.5225,-2.0524 6.2813,-2.0937 z m -7.1563,75.969 c 0.2726,0.0158 0.4855,0.1105 0.6563,0.2813 2.9506,2.9507 -9.9646,111.33 -14.25,119.56 -0.6456,1.2407 -2.1368,1.7381 -5.125,1.75 -2.3181,0.01 -8.1522,0.6531 -12.938,1.4376 -4.7854,0.7844 -12.548,1.7435 -17.25,2.125 -9.9622,0.8083 -10.144,0.588 -5.375,-6.8438 4.0657,-6.3358 3.2538,-8.1051 -4,-8.5312 -7.3308,-0.4309 -15.7,1.3431 -22.781,4.8124 -3.3675,1.65 -6.7425,2.9999 -7.5,3 -1.1132,3e-4 -1.375,-3.1151 -1.375,-16.25 0,-15.646 -0.1089,-16.436 -2.6562,-21.25 -7.9129,-14.953 -23.101,-24.948 -46.844,-30.781 l -5.5,-1.3438 -0.625,-13.937 c -0.3363,-7.6674 -0.9436,-16.764 -1.375,-20.219 l -0.8125,-6.2812 11.406,0.1562 c 10.057,0.1608 12.164,-0.1134 17.937,-2.3438 l 6.5313,-2.5 2.7813,2.375 c 3.6343,3.1262 8.672,3.0902 18.25,-0.125 4.096,-1.375 8.0385,-2.5 8.75,-2.5 0.7116,10e-5 2.0125,1.5323 2.9062,3.4063 2.9174,6.1179 10.467,5.7316 20,-1.0313 5.5475,-3.9354 6.5076,-4.028 14.219,-1.375 3.1888,1.0972 9.6714,2.4643 14.406,3.0626 10.737,1.3564 21.138,-0.4475 26.656,-4.6563 1.7974,-1.3709 3.0884,-2.0473 3.9063,-2 z m -188.72,53.906 c 12.658,0.0293 24.733,1.395 39.375,4.25 20.142,3.9273 31.44,8.5854 40.625,16.844 7.5112,6.7533 9.6218,11.805 9.0624,21.469 -1.1343,19.595 -14.933,31.278 -46.781,39.531 -25.585,6.6302 -43.989,8.8793 -86,10.562 -32.891,1.3177 -38.732,2.1097 -52.5,6.9688 -6.05,2.1351 -15.5,5.4696 -21,7.4062 -16.221,5.7114 -28.337,5.6035 -46.844,-0.375 -17.026,-5.5004 -23.646,-11.003 -23.656,-19.656 -0.005,-5.5418 1.1198,-8.319 7.1875,-17.594 3.8331,-5.859 5.2165,-8.9923 5.5625,-12.594 0.7667,-7.9791 -2.4075,-12.504 -17.094,-24.437 -3.7019,-3.008 -4.6562,-4.4162 -4.6562,-6.8126 0,-5.3037 7.8187,-10.852 15.344,-10.875 1.0194,-0.003 5.5194,-1.1385 10,-2.5 8.8657,-2.6941 23.523,-4.8473 47.656,-7.0312 8.525,-0.7715 17.075,-1.7405 19,-2.1562 1.925,-0.4157 18.35,-0.7633 36.5,-0.7813 19.305,-0.0197 40.186,-0.641 50.312,-1.4687 6.2827,-0.5136 12.153,-0.7634 17.906,-0.75 z m -196.72,38.687 c 1.9748,0 11.876,9.2102 13.438,12.5 1.9994,4.2134 1.2087,7.6384 -3,13.156 -1.4007,1.8364 -2.8655,3.3225 -3.25,3.3125 -0.3845,-0.007 -1.7069,-1.4693 -2.9375,-3.25 -1.2305,-1.7807 -3.1987,-4.4136 -4.375,-5.875 -1.9605,-2.436 -2.0624,-3.373 -1.4062,-11.25 0.3935,-4.7261 1.081,-8.5938 1.5312,-8.5938 z m 322.81,23.094 c 0.3999,0.003 0.6658,0.0408 0.7813,0.1562 0.3853,0.3853 -0.3848,2.7006 -1.6876,5.1563 -2.7944,5.2675 -4.7093,5.996 -13.719,5.0313 -8.3494,-0.8942 -8.1625,1.1129 0.375,4.0624 3.2574,1.1254 6.4328,2.3564 7.0625,2.75 0.8197,0.5125 0.041,4.9343 -2.75,15.5 -4.2481,16.084 -8.3677,36.288 -9.3438,45.75 -0.3405,3.3 -0.8481,7.4625 -1.125,9.25 -0.5874,3.7938 -0.9884,3.8759 -4.7187,1.0938 -3.9637,-2.9562 -16.142,-7.006 -22.969,-7.625 -3.1867,-0.289 -6.0702,-0.9994 -6.4376,-1.5938 -0.3673,-0.5944 -0.5938,-2.6534 -0.4687,-4.5937 0.1251,-1.9404 -0.2177,-5.091 -0.7813,-7 -1.32,-4.4707 -0.7516,-4.9456 10.125,-8.375 4.7591,-1.5005 9.0834,-3.2666 9.625,-3.9375 0.5417,-0.6708 2.181,-9.9937 3.6563,-20.719 1.4754,-10.725 2.8751,-20.4 3.0937,-21.5 0.4018,-2.0214 4.2464,-4.6752 12.469,-8.5624 4.9783,-2.3535 14.014,-4.8646 16.812,-4.8438 z m -330.12,3.4062 c 2.1225,-0.2249 3.0539,0.5898 6.4063,4.5938 l 4.2187,5.0312 -1.1563,5 c -2.0761,8.9946 -1.4135,23.093 1.7813,37.531 1.6019,7.2397 2.6917,14.065 2.4063,15.156 -0.2854,1.0915 -0.0235,2.9093 0.5937,4.0624 1.6545,3.0916 15.423,10.795 24.344,13.625 14.893,4.7248 37.745,4.9332 53.719,0.5 12.546,-3.4817 13.682,-3.5416 14.469,-1.0624 1.2304,3.8769 -1.5658,6.4375 -8.5938,7.9062 -9.5051,1.9863 -9.7209,2.0909 -10.406,4.25 -0.4208,1.3254 0.2229,3.1271 1.9374,5.375 1.4205,1.8622 2.5938,4.3714 2.5938,5.5625 0,3.1625 -5.7056,8.1219 -8.9062,7.75 -2.1917,-0.2547 -2.6868,-0.896 -3.1563,-4.2813 -1.0856,-7.8276 -4.8074,-11.5 -11.625,-11.5 -5.8334,0 -7.8789,2.7296 -5.7813,7.75 1.9233,4.6027 1.8345,6.5972 -0.4062,8.625 -2.2401,2.0273 -7.473,3.6424 -8.875,2.75 -0.5546,-0.353 -1.3207,-2.1999 -1.7188,-4.125 -1.0498,-5.0763 -3.0486,-7.7284 -7.5624,-10.031 -4.4141,-2.2519 -5.1081,-2.0299 -12.938,3.625 -2.0473,1.4787 -4.5028,2.3622 -6,2.1875 -2.1465,-0.2503 -2.6279,-0.9166 -3.0937,-4.4063 -0.7191,-5.3873 -3.3781,-9.3837 -6.2187,-9.3437 -1.2248,0.0172 -4.0188,1.145 -6.2188,2.5 -2.2,1.355 -5.4625,2.4687 -7.25,2.4687 -2.7157,0.004 -3.2487,-0.3698 -3.2188,-2.25 0.0196,-1.2375 0.6828,-3.375 1.4688,-4.75 1.9165,-3.3518 1.8555,-9.4882 -0.0938,-11.437 -1.1443,-1.1442 -3.5711,-1.5626 -8.9374,-1.5626 -4.0533,10e-5 -7.645,-0.4881 -8,-1.0624 -0.355,-0.5744 1.1655,-3.0094 3.375,-5.4063 4.4163,-4.7913 6.7669,-10.917 5.75,-14.969 -1.2038,-4.7966 -3.6439,-6.1867 -12.156,-6.9063 -5.8005,-0.4903 -8.408,-1.1893 -9.8125,-2.5937 -2.7312,-2.7314 -1.4231,-4.776 3.5625,-5.5938 5.6462,-0.9261 7.8125,-2.9315 7.8125,-7.25 0,-3.5712 -3.6069,-7.9765 -10.406,-12.75 l -2.875,-2 2.7187,-3.25 c 1.4955,-1.7773 3.1982,-3.2188 3.7813,-3.2188 0.583,0 2.5992,1.5751 4.4687,3.5 2.7443,2.8258 4.1504,3.5 7.3125,3.5 5.3227,0 6.2173,-1.9384 5.4062,-11.75 -0.7235,-8.7502 0.198,-10.449 6.2813,-11.594 0.3621,-0.0681 0.6968,-0.1241 1,-0.1563 z m 295.06,2.125 c 0.1183,-0.014 0.199,-0.025 0.25,0.0313 0.4079,0.4505 -0.8665,10.402 -2.8125,22.094 l -3.5313,21.25 -9.5937,2.9376 c -14.517,4.4248 -16.548,4.8549 -34.719,7.6874 -16.316,2.5435 -18.338,2.6418 -63.844,2.75 l -47,0.125 -7,2.875 c -3.85,1.591 -10.524,4.6406 -14.812,6.7813 -10.407,5.1952 -23.466,9.4421 -33.031,10.75 -8.8778,1.2153 -19.512,1.2147 -27.781,0 -11.732,-1.7236 -29.299,-9.2275 -30.812,-13.188 -1.358,-3.553 -5.5107,-26.614 -4.9063,-27.219 0.3026,-0.3025 3.0717,0.9864 6.1563,2.8438 6.5738,3.9586 21.45,9.0973 30.688,10.594 16.778,2.7183 26.912,1.0537 55.375,-8.9688 l 14.875,-5.2188 20.125,-0.9062 c 31.722,-1.4221 65.296,-3.7807 75.219,-5.2812 34.226,-5.1757 59.504,-14.275 71.406,-25.688 2.5219,-2.4179 4.922,-4.1518 5.75,-4.25 z m 40.562,17.375 c 1.8186,-0.1607 3.2524,1.081 3.5,3.625 0.2557,2.6279 -0.3451,3.6223 -3.7813,6.3438 -7.6136,6.0302 -9.1689,12.838 -4.0312,17.688 3.7384,3.5315 3.7475,4.3989 0,6.5313 -4.7603,2.7088 -5.6772,5.8849 -3.125,10.781 1.173,2.2505 2.125,4.6883 2.125,5.4375 0,2.1299 -2.1362,2.3483 -6.875,0.6563 l -4.3438,-1.5626 0.5938,-5.5 c 1.5325,-14.008 7.8709,-36.935 11.344,-41.062 1.5409,-1.8313 3.1792,-2.8125 4.5937,-2.9376 z m -69.812,43.313 c 0.1102,-0.026 0.2785,0.0599 0.4688,0.25 0.5888,0.5883 1.1287,3.9632 1.2187,7.5 0.1845,7.2771 -2.2255,13.236 -6.8125,16.844 -3.9747,3.1265 -4.8786,2.6449 -5,-2.6563 -0.06,-2.6125 -0.2848,-5.65 -0.5,-6.75 -0.3352,-1.7138 0.2202,-2.0483 3.875,-2.3124 5.6266,-0.4068 7.7812,-3.4057 6.8125,-9.4688 -0.3606,-2.2569 -0.3931,-3.3283 -0.062,-3.4062 z m -9.125,0.9374 c 3.2462,0.0686 3.5725,1.3527 3.5938,4.5 0.013,1.9541 -0.4943,2.25 -3.9063,2.25 -6.6754,0 -8.517,3.573 -5.5313,10.719 0.8423,2.0157 1.3063,4.2523 1.0313,4.9688 -0.6278,1.6359 -6.7665,1.7022 -8.375,0.0937 -0.66,-0.66 -1.1875,-2.9162 -1.1875,-5.0313 0,-5.265 -3.5108,-8.75 -8.7812,-8.75 -5.112,0 -6.9078,1.5878 -7.9376,7 -0.6696,3.5192 -1.2732,4.5 -2.8124,4.5 -1.5327,0 -1.8848,-0.5534 -1.5938,-2.5 0.2053,-1.375 0.3193,-5.0307 0.2812,-8.125 l -0.0624,-5.625 7.2187,-0.6562 c 3.9576,-0.3603 12.268,-1.4059 18.5,-2.3125 4.6135,-0.6713 7.6148,-1.0724 9.5625,-1.0313 z m -111.03,3.6876 15.562,0.2812 15.563,0.2812 1.7187,3.5 c 2.1595,4.4197 2.1998,6.4251 0.2187,8.4063 -2.4405,2.4404 -3.9663,1.9461 -8.75,-2.9063 -4.8245,-4.8938 -7.3445,-5.5191 -13,-3.1562 -5.8208,2.4321 -10.764,10.255 -7.6874,12.156 0.5444,0.3365 2.7233,-1.2397 4.8437,-3.4687 5.1757,-5.441 8.3447,-5.4319 13.281,-0.0313 4.0154,4.3928 7.0028,5.0184 11.812,2.5313 4.0085,-2.0728 5.6713,-6.6208 4.2188,-11.469 -1.5523,-5.1812 -1.581,-5.0626 2.4062,-5.0626 4.2825,0 5.1543,1.6979 3.5938,6.9063 -2.5673,8.5691 -12.817,15.17 -26.469,17.031 -4.3023,0.5866 -9.0273,1.0359 -10.5,1 -5.1332,-0.1263 -13.681,-3.0542 -17.156,-5.8438 -3.8011,-3.0512 -9.5478,-13.391 -8.4375,-15.188 0.8999,-1.456 6.821,-3.9063 9.4375,-3.9063 2.638,0 4.076,3.5683 4.875,12 0.5333,5.6281 0.8933,6.5 2.625,6.5 1.8685,10e-5 2.0005,-0.6509 1.9375,-9.7812 l -0.0937,-9.7812 z m 62.281,1 c 2.1278,-0.163 5.2114,0.8051 6.9062,2.5 2.8948,2.8948 2.9778,3.6592 0.8438,8.1562 -0.8887,1.8728 -1.3874,4.5333 -1.125,5.9062 0.6488,3.3938 -0.4966,3.124 -4.0625,-0.9374 -2.9239,-3.3301 -5.8902,-12.66 -4.6563,-14.656 0.357,-0.5776 1.1266,-0.8947 2.0938,-0.9687 z m -9.2188,0.1562 c 1.4068,-0.0844 1.4167,0.6711 0.9063,5.0938 -0.3374,2.9229 -1.1154,5.6271 -1.7187,6.0312 -0.6035,0.4041 -1.9067,0.74 -2.9063,0.75 -1.4393,0.0121 -1.6804,-0.4369 -1.0937,-2.2188 0.4074,-1.2375 1.0191,-3.825 1.3437,-5.75 0.4407,-2.6139 1.1403,-3.5776 2.7813,-3.8124 0.2611,-0.0374 0.4865,-0.0817 0.6874,-0.0938 z m -80.344,7.0938 c 1.4706,-0.1644 2.1728,1.0755 3.2187,4.0624 0.8185,2.3375 1.8123,4.9876 2.1876,5.9063 0.5158,1.263 -0.6358,2.5019 -4.6876,5.0937 -6.6424,4.2491 -9.7812,5.969 -9.7812,5.3126 0,-0.2775 0.9624,-2.3969 2.1562,-4.6876 1.8644,-3.5766 2.0307,-4.7003 1.125,-8.0937 -1.0184,-3.8155 -0.9637,-4.0298 2.0626,-5.875 1.6713,-1.0191 2.8363,-1.6202 3.7187,-1.7187 z m 114.84,0.8124 c 3.7456,0 5.0938,1.7311 5.0938,6.625 0,3.6642 0.4875,4.6178 3.7188,7.2813 3.7005,3.0498 3.7204,3.0937 1.0937,3.0937 -1.4553,10e-5 -3.2675,0.1432 -4,0.3438 -2.0737,0.5678 -13.974,-1.0398 -17.312,-2.3438 l -3,-1.1874 3.9688,-1.375 c 4.7379,-1.6422 6.375,-3.5757 7.1874,-8.6563 0.5239,-3.2754 0.9321,-3.7813 3.25,-3.7813 z m 42.406,5 c 4.9133,0.0238 5.861,1.0306 4.4687,4.7188 -1.0549,2.7947 -0.8777,3.5238 1.5313,7 3.0582,4.4129 3.3491,6.0767 1.1875,6.9062 -0.9071,0.3481 -3.1753,-0.8837 -5.6562,-3.125 -3.65,-3.2978 -4.5703,-3.6829 -8.0313,-3.2187 -4.821,0.6467 -8.8125,3.1578 -8.8125,5.5313 0,0.9804 1.125,3.3237 2.5,5.1874 5.2015,7.0502 2.106,11.938 -8.0625,12.781 -5.095,0.4225 -5.5901,0.2442 -9.8437,-3.5 -5.1593,-4.5414 -11.563,-6.899 -14.469,-5.3437 -1.0406,0.5569 -2.8647,2.6167 -4.0312,4.5937 -3.0112,5.1036 -6.2304,4.5639 -7.375,-1.25 -1.0936,-5.5548 -4.5303,-8.2813 -10.438,-8.2813 -5.7561,0 -10.281,4.0586 -10.281,9.2188 0,3.9466 -1.5078,5.7812 -4.7188,5.7812 -2.0898,10e-5 -2.2812,-0.4762 -2.2812,-4.9687 0,-5.8995 -2.7719,-9.707 -7.7188,-10.656 -2.693,-0.5167 -3.6593,-0.1539 -6,2.3438 -1.5346,1.6374 -3.6055,4.1731 -4.5937,5.625 -2.2705,3.3359 -5.2976,3.3807 -8.3437,0.0938 -3.8857,-4.1927 -7.8434,-3.1305 -12.875,3.4687 -4.0763,5.3463 -6.7792,7.1974 -9.2188,6.3437 -1.9927,-0.6972 -1.4588,-3.6768 1.4062,-7.875 1.4601,-2.1391 3.4906,-5.7875 4.5313,-8.125 1.8367,-4.125 2.0287,-4.2672 6.5937,-4.2812 8.0728,-0.0254 17.238,-2.7867 24.75,-7.4688 3.8811,-2.4188 7.8817,-5.3052 8.9063,-6.4374 1.3949,-1.5413 3.1038,-2.0626 6.75,-2.0626 4.6172,0 5.1658,0.3065 10.594,5.8438 6.7511,6.8871 13.929,10.049 24.719,10.875 15.454,1.183 33.324,-6.2428 39.625,-16.438 1.6169,-2.6161 2.6739,-3.2932 5.1875,-3.2813 z m 12.219,3.1563 c 0.8701,0.0508 1.8971,0.8026 2.4376,1.8125 0.6177,1.1542 1.0118,3.9688 0.8437,6.25 l -0.3125,4.1562 -2.8125,-3.7187 c -3.0389,-3.9989 -3.2712,-7.9408 -0.5,-8.4687 0.1157,-0.0221 0.2195,-0.0386 0.3437,-0.0313 z m -158.53,8.4063 c 0.3662,0.007 0.6577,0.1298 0.9062,0.3124 0.8805,0.6472 3.9791,2.3306 6.9063,3.75 2.9272,1.4194 5.5787,3.1967 5.875,3.9688 0.2962,0.772 -1.2922,4.2243 -3.5,7.6562 -2.2078,3.4321 -4.3,7.6584 -4.6563,9.375 l -0.6562,3.0938 -10.188,0.5625 c -10.153,0.5346 -16.668,2.1424 -49.688,12.312 -13.676,4.2123 -32.607,4.0202 -44.094,-0.4375 -2.2112,-0.8581 -2.7056,-1.8112 -3.25,-6.3437 -1.2327,-10.265 -1.1414,-10.534 4.1563,-13.219 2.6471,-1.3414 5.4047,-3.1634 6.125,-4.0312 1.5715,-1.8937 5.072,-2.0367 7.25,-0.3126 0.8899,0.7046 1.8045,3.3917 2.0937,6.1876 0.8263,7.9876 6.3892,10.697 14.313,6.9374 5.824,-2.7636 8.4062,-6.7373 8.4062,-12.969 0,-3.8763 0.3824,-5.4063 1.3438,-5.4063 2.4101,10e-5 4.3985,3.3756 4.9374,8.4376 0.8537,8.0204 5.2337,10.365 12.5,6.6562 4.5955,-2.3454 6.6798,-4.601 8.6876,-9.4062 1.3448,-3.2184 1.8224,-3.5999 3.4687,-2.7188 1.0512,0.5626 2.3761,1.0312 2.9375,1.0312 0.5614,0 6.5121,-3.6732 13.219,-8.1562 8.2027,-5.4831 11.319,-7.3139 12.906,-7.2812 z m -25.438,4.4374 c 2.7445,0 3.2559,1.4494 0.8437,2.375 -2.0175,0.7737 -2.92,0.7676 -3.7187,-0.0312 -1.1335,-1.1334 0.3658,-2.3438 2.875,-2.3438 z m 165.84,1 c 1.6463,0 3.3714,1.148 5.0938,3.4063 1.4275,1.8715 3.6564,3.6706 4.9688,4 3.0925,0.7762 7.5638,-0.9368 9.75,-3.7187 1.7109,-2.1766 1.7279,-2.163 1.75,2.0937 0.029,5.7004 -2.0603,9.495 -7.2188,13.031 -10.476,7.1817 -20.393,10.655 -40.75,14.25 -11.307,1.9969 -28.606,3.1649 -34.5,2.3437 -1.65,-0.2298 -7.275,-0.905 -12.5,-1.5 -9.9271,-1.1304 -33.795,-5.2821 -40.25,-7 -2.0625,-0.5489 -3.75,-1.4641 -3.75,-2.0313 0,-1.6251 5.9808,-9.875 7.1562,-9.875 0.5819,0 1.9185,1.125 3,2.5 1.4655,1.8631 2.9266,2.5 5.6876,2.5 4.6661,0 7.6305,-2.0506 10.187,-7.0624 1.5044,-2.9487 2.6161,-3.9376 4.4376,-3.9376 3.274,10e-5 4.3126,2.238 3.75,8.0938 -0.5874,6.1119 0.7359,7.9062 5.875,7.9062 5.6768,0 10.052,-4.1771 10.375,-9.9062 0.2798,-4.9594 1.6815,-6.2402 6.4374,-5.875 3.6765,0.2823 4.3288,1.1146 6,7.4062 0.8394,3.1601 1.7987,4.4113 4.125,5.375 4.0242,1.6668 7.3335,0.1907 10.156,-4.5937 1.9668,-3.3334 2.4072,-3.5673 5.7187,-3.0313 2.6509,0.4292 4.6638,1.7984 7.6876,5.2813 3.8619,4.4486 4.3697,4.7187 9.0937,4.7187 9.6366,0 18.312,-5.2399 18.312,-11.062 0,-1.3228 -0.9241,-4.2374 -2.0625,-6.4688 -2.4224,-4.7484 -1.9828,-6.8438 1.4687,-6.8438 z m -255.09,5.1563 c 1.4357,10e-4 2.265,1.4626 2.5,4.3437 0.1785,2.1886 0.8155,4.5381 1.4063,5.25 0.5909,0.712 0.9768,4.0745 0.875,7.4688 -0.1019,3.3943 -0.3418,6.3419 -0.5313,6.5312 -0.6538,0.6539 -3.6546,-2.99 -5.4687,-6.625 -1.0008,-2.0051 -2.3601,-5.8849 -3.0313,-8.625 -1.1512,-4.6994 -1.0775,-5.0736 1.0313,-6.7812 1.2846,-1.0402 2.3573,-1.5634 3.2187,-1.5625 z"
         style="fill:#000000"
         inkscape:connector-curvature="0" />
      <path
         id="path4417"
         d="m 537.32,-884.54 c -55.229,1.6655 -111.11,0.3097 -165.56,10.673 -10.095,3.1144 -25.047,2.6207 -29.536,14.227 -0.7328,7.0682 8.0531,10.78 11.811,15.655 6.6069,5.1584 12.458,13.995 7.2806,22.257 -4.5261,10.047 -14.616,21.795 -8.1711,33.226 10.629,10.117 25.804,13.949 39.965,16.381 28.61,2.2394 53.83,-16.714 82.324,-16.749 44.055,-2.9647 90.262,-2.037 131.17,-20.776 14.218,-6.1498 24.884,-20.754 22.848,-36.673 -0.4684,-14.929 -15.648,-23.474 -27.882,-28.424 -20.449,-7.1484 -42.535,-10.499 -64.246,-9.7976 z"
         style="color:#000000;fill:#d8b17c"
         inkscape:connector-curvature="0" />
      <path
         id="path4419"
         d="m 629.37,-817.62 c -22.791,20.585 -54.261,26.248 -83.724,30.167 -29.431,3.1692 -59.177,3.501 -88.583,6.1509 -23.235,6.8473 -47.008,18.821 -71.717,12.736 -11.688,-1.849 -21.943,-7.7546 -32.98,-11.646 -4.946,1.8537 0.053,9.375 -0.5034,13.205 1.4726,7.5301 1.7511,17.139 10.224,20.292 17.948,10.857 39.84,9.547 59.753,7.0481 16.769,-3.0869 31.447,-12.912 47.206,-18.528 37.462,-1.197 75.15,0.4532 112.46,-3.2741 14.623,-2.6679 29.358,-5.6212 43.256,-10.572 4.0727,-12.405 4.9224,-26.213 7.1137,-39.182 0.027,-2.1841 1.2773,-7.9338 -2.5054,-6.398 z"
         style="color:#000000;fill:#ae854d"
         inkscape:connector-curvature="0" />
      <path
         id="path4421"
         d="m 343.35,-845.78 c -4.1948,3.6838 -3.5462,11.297 -2.7108,16.458 1.5275,5.2195 4.7967,11.906 10.224,13.438 7.7468,-4.1603 10.305,-17.419 2.1299,-22.771 -3.0698,-2.2237 -5.5356,-7.0057 -9.6426,-7.1255 z"
         style="color:#000000;fill:#ae854d"
         inkscape:connector-curvature="0" />
      <path
         id="path4423"
         d="m 464.13,-726.31 c -10.883,3.1974 -19.212,13.167 -30.593,14.754 -4.1731,4.894 -7.903,11.311 -15.026,12.353 -6.424,0.1735 -5.2474,-8.8922 -7.7838,-12.818 -1.5626,-5.337 -7.8858,-1.362 -7.3191,2.9044 0.594,8.4327 -11.07,17.534 -17.775,10.456 -2.9947,-4.3074 -2.9279,-14.571 -10.688,-12.16 -5.0771,2.1202 -10.591,5.1026 -14.135,9.1779 1.6002,5.1389 -1.2902,13.4 3.6014,16.962 16.343,6.0925 34.896,3.8559 51.464,-0.3946 17.265,-4.8356 34.503,-10.752 52.63,-11.146 4.5014,-6.1886 9.187,-13.835 10.572,-21.648 -2.6195,-4.3691 -9.836,-8.2043 -14.948,-8.4421 z"
         style="color:#000000;fill:#ae854d"
         inkscape:connector-curvature="0" />
      <path
         id="path4425"
         d="m 349.54,-715.7 c -7.2175,0.951 -5.4526,9.4336 -2.8315,13.891 2.3074,3.0749 2.4165,10.724 7.3623,10.312 4.8929,-6.5583 1.1914,-15.954 -1.3166,-22.809 -0.6676,-1.1079 -1.9727,-1.5891 -3.2142,-1.3941 z"
         style="color:#000000;fill:#ae854d"
         inkscape:connector-curvature="0" />
      <path
         id="path4427"
         d="m 604.28,-721.08 c -5.9462,1.8578 -0.5636,9.5254 0,13.36 -0.2544,6.7358 -9.3528,9.8107 -15.026,10.069 -9.2424,2.0911 -13.398,-12.755 -22.461,-8.8681 -3.1174,3.2625 -7.9973,10.533 -12.78,5.3054 -3.19,-4.0227 -3.1563,-12.401 -10.495,-11.23 -5.9882,0.063 -5.9823,6.3996 -7.5127,10.456 -2.2327,3.2453 -8.0169,7.2938 -11.54,4.2598 -2.6501,-4.3838 1.6631,-13.627 -5.073,-14.754 -7.191,0.6247 -8.6913,12.56 -16.807,10.804 -4.2134,-2.4823 -8.9478,-8.365 -11.889,-0.7745 -3.3434,2.9063 -4.2881,9.2122 1.3554,9.8363 20.433,4.9093 41.442,8.9682 62.542,9.1392 24.199,-2.1138 51.043,-4.4496 70.093,-20.912 3.3707,-3.4241 5.7242,-11.504 1.5877,-14.212 -3.875,1.8888 -9.1702,7.6971 -13.012,2.2849 -2.542,-2.0954 -5.5156,-4.8808 -8.9843,-4.7633 z"
         style="color:#000000;fill:#ae854d"
         inkscape:connector-curvature="0" />
      <path
         id="path4429"
         d="m 664.27,-823.24 c -9.8174,2.1106 -20.1,5.6545 -27.766,12.276 -4.1802,13.949 -3.7872,29.001 -8.2098,42.753 -5.541,4.7664 -14.272,4.5119 -19.363,9.4103 0.1205,6.6332 -1.1437,17.506 7.8613,18.743 9.3146,1.4855 18.098,4.8737 26.411,9.0231 5.0606,-0.8147 3.077,-8.722 4.7374,-12.336 2.8379,-20.488 8.5633,-40.688 12.341,-61.049 -2.3912,-3.7043 -7.8072,-3.8083 -11.347,-6.2348 6.7394,0.011 16.796,0.3363 18.201,-8.3647 1.2065,-2.2578 -0.088,-4.8522 -2.8657,-4.2211 z"
         style="color:#000000;fill:#ffe945"
         inkscape:connector-curvature="0" />
      <path
         id="path4431"
         d="m 454.02,-744.64 c -2.5144,0.4459 -4.7292,1.96 -6.7088,3.4982 -2.0495,2.043 -0.5117,5.0202 -0.2396,7.4208 0.6997,2.9763 -1.5031,5.4799 -2.4874,8.1062 -0.6334,1.264 -1.7303,3.1657 -0.114,4.2025 1.8841,0.8013 3.5583,-0.9714 5.1891,-1.6567 3.7218,-2.3175 7.8372,-4.3257 10.803,-7.6193 1.5721,-1.8463 -0.1194,-4.1381 -0.6024,-6.0653 -1.072,-2.3785 -1.5138,-5.2062 -3.375,-7.1333 -0.6691,-0.5852 -1.5869,-0.8364 -2.4645,-0.7531 z"
         style="color:#000000;fill:#ffe945"
         inkscape:connector-curvature="0" />
      <path
         id="path4433"
         d="m 439.34,-722.82 c -1.9543,-0.055 -4.6587,0.9649 -4.4429,3.327 0.2869,2.2341 2.992,3.2414 4.9153,2.3618 1.7432,-0.3971 4.1613,-1.6018 3.6214,-3.772 -0.5047,-1.6913 -2.5982,-1.9645 -4.0938,-1.9168 z"
         style="color:#000000;fill:#ffe945"
         inkscape:connector-curvature="0" />
      <path
         id="path4437"
         d="m 534.42,-751.76 c -2.0588,-0.048 -4.0481,1.2644 -4.4908,3.3407 -0.7517,2.9554 -1.4369,5.9248 -2.1017,8.8858 -0.3266,2.0335 1.9963,3.067 3.7036,2.6356 1.9225,-0.055 3.8573,-1.1654 4.3334,-3.1285 0.8943,-3.1971 1.4811,-6.5867 1.1638,-9.9058 -0.2477,-1.1995 -1.4122,-1.9662 -2.6083,-1.8278 z"
         style="color:#000000;fill:#ffe945"
         inkscape:connector-curvature="0" />
      <path
         id="path4439"
         d="m 592.12,-756.43 c -11.684,1.0466 -23.42,2.4365 -35.064,4.0116 -2.6524,1.4324 -0.9238,5.2411 -1.4737,7.7216 0.3452,3.3105 -0.8379,6.9458 0.3647,10.091 1.887,2.2272 5.612,0.7559 6.1338,-1.9579 1.1186,-2.8189 1.24,-7.5261 5.0248,-7.9958 4.0481,-1.1849 9.0464,1.5685 9.2555,6.0242 0.3072,3.0996 0.6119,7.8441 4.5456,8.3108 2.7235,0.2947 7.1809,0.9521 8.119,-2.4919 0.469,-4.264 -3.5158,-8.5124 -1.506,-12.665 2.5326,-2.2367 6.5664,-0.7326 9.3513,-2.4645 1.2794,-3.0483 0.7379,-8.3476 -3.4777,-8.5298 -0.4204,-0.055 -0.8505,-0.092 -1.2733,-0.055 z"
         style="color:#000000;fill:#ff4545"
         inkscape:connector-curvature="0" />
      <path
         id="path4443"
         d="m 480.43,-752.66 c -1.2757,3.349 -0.2126,7.2583 -0.5646,10.83 -0.1472,2.6417 0.1783,6.0629 -0.3664,8.2423 -2.0991,-5.4305 -0.7926,-12.291 -4.5593,-17.128 -2.9603,-1.9866 -6.8766,-0.2007 -9.8168,1.0542 -2.2731,0.9415 -5.0669,3.1559 -3.683,5.9148 2.0368,5.071 4.7297,10.195 8.9132,13.815 6.9963,4.2384 15.402,7.096 23.654,5.5743 11.143,-1.0437 23.436,-4.2014 30.184,-13.903 2.0773,-3.3036 4.1621,-7.7553 2.4345,-11.606 -2.0724,-2.5286 -5.983,-1.8821 -8.8036,-1.4239 -2.4518,1.7436 -0.038,4.9798 -0.055,7.3113 0.536,2.8203 0.2819,6.1796 -2.396,7.8726 -2.8148,2.8428 -7.7381,2.6617 -10.31,-0.4244 -2.7682,-2.6729 -6.3741,-6.5957 -10.666,-4.7783 -3.3735,1.3394 -5.6664,4.2952 -8.5709,6.3391 0.7045,-4.1475 4.5454,-6.9939 8.0643,-8.7762 2.6098,-1.4182 5.8767,-1.3657 8.0506,0.8215 3.3679,2.2001 5.9126,6.2993 10.159,6.8183 3.4806,-0.5027 6.2027,-4.4143 4.8331,-7.8726 -0.9108,-2.905 -1.8167,-6.0614 -3.8199,-8.3655 -10.494,-0.2396 -21.05,-0.1753 -31.559,-0.712 -0.3742,0.1324 -0.7484,0.2647 -1.1227,0.3971 z"
         style="color:#000000;fill:#ff4545"
         inkscape:connector-curvature="0" />
      <path
         id="path4445"
         d="m 601.83,-757.19 c -2.8701,0.5784 -1.4809,4.4388 -1.625,6.5625 0.3723,2.4324 -0.9108,5.1526 -3.5,5.5 -2.2384,0.8618 -6.1332,0.1091 -6.9687,2.875 -0.1919,4.2187 -0.1094,8.621 0.9375,12.719 1.9706,2.9586 5.8113,0.1569 7.625,-1.5938 6.6171,-6.2968 7.6567,-16.65 5.1562,-25.031 -0.3191,-0.6856 -0.9434,-0.8707 -1.625,-1.0313 z m -57.812,5.2813 c -2.346,-0.1439 -4.7728,1.7243 -4.0626,4.25 0.5818,6.7681 3.6701,13.912 9.5313,17.656 3.2351,0.1249 2.104,-3.8682 2.5937,-5.9062 0.248,-3.7055 3.7888,-7.5831 1.1876,-11.125 -2.0836,-2.9154 -5.6366,-4.9278 -9.25,-4.875 z m 24.312,8.1562 c -2.6021,0.0273 -4.0211,2.7282 -4.1562,5.0938 -0.4559,3.1831 -2.1673,6.221 -5.5,7 -1.7489,0.8695 -5.6598,1.4598 -4.4375,4.25 3.061,2.2978 7.3024,2.2808 10.906,3.25 5.4337,0.8333 11.238,1.1347 16.531,-0.3126 1.8852,-2.2294 -1.8656,-3.8161 -3.1875,-5.3124 -2.2078,-1.6493 -3.2804,-4.2015 -2.9687,-6.9688 0.1608,-3.5227 -2.3525,-7.3335 -6.2188,-6.9688 l -0.4375,0 c -0.1838,-0.0226 -0.3577,-0.033 -0.5313,-0.0312 z"
         style="color:#000000;fill:#ff1d1d"
         inkscape:connector-curvature="0" />
      <path
         id="path4453"
         d="m 335.61,-820.12 c -5.6782,-0.2415 -9.3374,5.118 -8.7079,10.406 -0.7232,3.9142 1.5676,9.3862 -1.3417,12.542 -6.0923,2.2413 -9.5443,-4.8763 -14.321,-6.791 -2.4009,2.4296 -7.3606,4.8498 -7.01,8.7625 4.2661,4.7754 13.096,8.6984 11.747,16.375 -2.0392,5.2092 -11.721,2.0891 -11.665,8.7626 1.5759,6.189 9.9838,4.6096 14.677,6.2707 4.4734,0.4444 10.243,3.9893 8.1054,9.2281 -1.2174,6.1062 -7.2431,10.108 -8.4066,16.046 2.8684,4.1657 9.4265,1.6955 13.719,2.9847 5.35,0.3071 4.1882,7.079 2.8479,10.542 -1.4701,2.979 -2.6032,8.7769 2.3002,8.9817 5.5953,0.2857 10.402,-5.6166 15.827,-3.9432 3.5359,3.4418 2.1147,10.975 7.3934,12.569 7.1329,0.5831 12.176,-9.3609 19.36,-5.3671 5.7645,2.6103 4.4739,10.874 9.7758,13.637 6.1546,1.0644 13.444,-4.8041 10.625,-11.364 -1.4022,-2.3823 -1.9543,-6.7799 1.862,-6.9279 6.5588,-2.2882 11.48,4.4083 12.24,10.214 0.2874,5.1569 6.4938,5.912 9.6936,2.8752 4.0768,-2.3606 6.2411,-7.6422 3.149,-11.72 -1.0629,-2.0637 -4.497,-6.5164 -0.356,-7.3113 5.3485,-2.2907 14.833,-1.4244 16.649,-8.434 1.1553,-3.9076 -3.1222,-6.4893 -6.5343,-4.9874 -20.143,4.6153 -41.909,7.7409 -62.009,1.5427 -8.2679,-3.4658 -17.652,-6.5696 -23.93,-13.122 -2.6197,-19.93 -8.4504,-40.532 -3.7241,-60.626 -2.6187,-4.1458 -5.8448,-10.023 -11.227,-11.145 -0.2439,-0.027 -0.4972,-0.06 -0.7393,0 z"
         style="color:#000000;fill:#c2eb5d"
         inkscape:connector-curvature="0" />
      <path
         id="path4455"
         d="m 611.17,-738.66 c -3.24,-0.1831 -5.4357,2.0667 -6.572,4.6825 -14.732,15.998 -42.698,20.941 -59.859,6.079 -4.6983,-5.5531 -12.767,-10.263 -19.825,-6.1064 -9.4995,7.2835 -20.424,13.435 -32.613,14.13 -6.2831,-1.2076 -9.0241,3.891 -11.337,8.7352 -1.5665,4.1374 -6.7467,9.033 -4.1348,13.637 4.0676,3.2983 8.1146,-2.6318 10.908,-5.0363 2.6862,-2.5597 6.7871,-8.478 10.999,-4.7942 2.8552,3.0212 8.2193,4.4965 10.84,0.319 3.2833,-2.7152 6.9713,-10.598 12.189,-6.3159 4.9081,2.9188 2.5993,9.5237 5.4766,13.527 4.488,3.2898 8.1674,-3.2459 8.4066,-7.147 1.3677,-7.4928 13.712,-9.9366 16.649,-2.218 1.7645,2.8784 2.8068,10.342 7.6946,7.6673 3.6738,-2.4964 5.713,-10.067 11.309,-7.1744 7.2064,1.8894 11.83,10.952 20.127,8.3245 5.1243,-0.1743 12.263,-3.408 10.378,-9.6936 -0.2412,-3.7211 -4.9497,-7.2344 -3.2585,-10.898 4.3515,-3.6415 10.89,-3.2205 14.705,1.0679 1.9972,2.3918 8.2343,3.8995 7.6398,-0.9584 -0.9815,-4.7617 -5.6186,-8.6396 -3.5871,-13.883 0.4975,-3.4277 -3.6226,-4.1309 -6.1338,-3.9431 z"
         style="color:#000000;fill:#c2eb5d"
         inkscape:connector-curvature="0" />
      <path
         id="path4457"
         d="m 670.97,-800.27 c -7.4527,1.6546 -8.424,11.008 -10.825,16.967 -2.8238,10.547 -5.9609,21.346 -6.3716,32.268 1.2058,4.5171 7.3306,4.7893 11.145,5.1754 4.7003,-3.2468 -0.916,-9.2606 -0.7667,-13.582 0.5056,-4.4035 8.8114,-5.2926 6.0242,-10.57 -2.3884,-3.3548 -6.812,-7.4186 -3.4776,-11.775 2.5879,-5.387 11.147,-8.8522 8.8447,-15.8 -0.7059,-1.8156 -2.6477,-2.94 -4.5729,-2.6835 z"
         style="color:#000000;fill:#c2eb5d"
         inkscape:connector-curvature="0" />
      <path
         id="path4459"
         d="m 623.13,-735.67 c -3.0971,0.4888 -4.0793,4.4296 -2.7883,6.9609 1.2628,2.8107 2.9595,5.6281 5.3514,7.581 1.8211,0.8005 2.8291,-1.3943 2.5837,-2.9045 -0.137,-3.6441 0.7603,-8.2446 -2.5232,-10.814 -0.7505,-0.5612 -1.6799,-0.8991 -2.6236,-0.8229 z"
         style="color:#000000;fill:#ae854d"
         inkscape:connector-curvature="0" />
      <path
         id="path4461"
         d="m 727.64,-938.98 c -5.0171,1.9784 -9.47,5.6779 -15.122,5.9056 -10.979,1.7828 -21.924,-0.7757 -32.479,-3.6821 -9.669,-2.9931 -16.091,9.2764 -25.648,7.2255 -3.7286,-1.1758 -4.5983,-6.4224 -8.1517,-7.3191 -7.7039,1.7983 -15.661,5.7403 -23.661,4.2792 -2.9166,-1.2983 -5.4764,-5.3619 -8.9545,-2.8411 -7.117,3.3394 -14.857,3.8681 -22.607,3.5629 -3.6735,0.369 -7.8281,-0.5824 -11.211,1.0015 -1.0102,3.5371 0.6269,7.5239 0.4545,11.267 0.8811,10.035 1.0543,20.25 2.2817,30.181 2.533,2.2121 6.9193,1.9414 10.063,3.299 15.988,4.8001 32.661,12.43 41.126,27.689 4.3254,5.6679 2.6158,13.17 3.3507,19.807 0.5135,6.1339 -0.3185,12.628 1.277,18.55 3.1432,2.2215 6.826,-1.4016 9.9524,-2.0718 7.977,-3.5946 16.93,-4.8967 25.598,-3.8338 2.6229,1.1787 -0.8412,4.0975 -1.1991,5.8534 -1.1654,2.4659 -4.9597,7.2792 -0.7953,8.901 9.2864,0.41 18.542,-1.7874 27.8,-2.5341 5.2111,-0.9801 10.864,-0.6416 15.804,-2.4228 4.4814,-12.598 5.2983,-26.177 7.5128,-39.306 3.3812,-26.382 7.0645,-52.801 7.9193,-79.407 0.076,-1.9756 -0.8853,-4.4834 -3.311,-4.1049 z"
         style="color:#000000;fill:url(#linearGradient5153)"
         inkscape:connector-curvature="0" />
      <path
         id="path4467"
         d="m 657.91,-948.84 c -23.829,-0.061 -47.341,4.3786 -70.868,7.2804 -2.7729,0.819 -5.9912,-1.8942 -8.1323,1.0068 -1.9603,3.5404 3.074,5.2105 5.7507,5.2473 9.072,1.5415 18.53,1.4701 27.178,-2.021 3.0914,-1.1027 7.2984,-2.1893 9.3406,1.2852 3.7563,3.7378 9.5817,0.8609 13.998,0.1145 4.4224,-0.8045 8.7217,-3.5355 13.187,-3.4448 3.1381,1.7764 2.2692,7.5587 6.7189,7.8031 7.3437,0.1 11.976,-6.7739 18.027,-9.6426 6.5218,-1.0428 12.789,2.5077 19.195,3.3607 7.0432,1.1324 14.856,3.4029 21.68,0.3376 2.8911,-1.0017 4.7533,-6.3479 1.0456,-7.4353 -13.511,-3.0239 -27.552,-3.1646 -41.358,-3.7676 -5.2523,-0.1212 -10.508,-0.2041 -15.762,-0.1243 z"
         style="color:#000000;fill:#f8990c"
         inkscape:connector-curvature="0" />
      <path
         id="path4469"
         d="m 735,-1015.3 c -6.8139,2.173 -13.486,4.8503 -20.454,6.5522 -25.314,6.5546 -51.367,9.7575 -77.366,12.385 -13.279,1.1505 -26.665,1.0252 -39.993,0.7257 -7.5036,-0.5009 -15.153,-2.1526 -21.6,-6.2537 -1.6096,-1.2198 -4.0748,-0.1709 -4.0372,1.9072 -0.1873,9.9215 1.0985,19.81 2.0228,29.679 1.159,9.8695 2.1044,19.806 4.1927,29.522 0.6175,1.6522 2.515,1.1926 3.6983,0.5325 1.2183,0.06 2.2316,-0.7005 2.6527,-1.7524 4.3184,-2.8479 9.7399,-2.948 14.666,-4.1434 12.755,-2.2086 25.584,-4.4654 38.484,-5.4749 19.46,-0.6485 38.999,-0.8579 58.416,0.5077 7.4093,0.7743 14.942,1.4608 22.026,3.7859 3.8835,1.1678 6.1057,5.8749 10.524,5.4603 2.7906,-0.04 3.9109,-3.0064 3.8925,-5.3791 1.838,-20.051 2.9891,-40.162 4.9116,-60.208 -0.089,-2.3965 1.0518,-5.1747 -0.3136,-7.3329 -0.4588,-0.4443 -1.1021,-0.6014 -1.7232,-0.5131 z"
         style="color:#000000;fill:#f9f2e8"
         inkscape:connector-curvature="0" />
      <path
         id="path4473"
         d="m 690.94,-1027.3 c -36.552,1.299 -73.621,3.7115 -109.53,9.3103 -2.6898,21.711 26.618,13.618 39.205,14.024 34.649,-3.3968 72.24,-3.0928 104.06,-17.42 0.1377,-9.6369 -19.844,-4.2519 -26.726,-6.0243 l -3.5046,0.055 -3.5046,0.055 -9e-4,0 z"
         style="color:#000000;fill:#f9f2e8"
         inkscape:connector-curvature="0" />
    </g>
  </g>
  <metadata
     id="metadata144102">
    <rdf:RDF>
      <cc:Work>
        <dc:format>image/svg+xml</dc:format>
        <dc:type
           rdf:resource="http://purl.org/dc/dcmitype/StillImage" />
        <cc:license
           rdf:resource="http://creativecommons.org/publicdomain/zero/1.0/" />
        <dc:publisher>
          <cc:Agent
             rdf:about="http://openclipart.org/">
            <dc:title>Openclipart</dc:title>
          </cc:Agent>
        </dc:publisher>
        <dc:title></dc:title>
        <dc:date>2011-04-16T05:21:09</dc:date>
        <dc:description>Desenho alertando sobre os horários das refeições.</dc:description>
        <dc:source>https://openclipart.org/detail/132691/horário-das-refeições-by-nara_oliveira</dc:source>
        <dc:creator>
          <cc:Agent>
            <dc:title>nara_oliveira</dc:title>
          </cc:Agent>
        </dc:creator>
        <dc:subject>
          <rdf:Bag>
            <rdf:li>alimentação</rdf:li>
            <rdf:li>clock</rdf:li>
            <rdf:li>comida</rdf:li>
            <rdf:li>healthy food</rdf:li>
            <rdf:li>lunch time</rdf:li>
            <rdf:li>meal</rdf:li>
            <rdf:li>refeição</rdf:li>
            <rdf:li>relógio</rdf:li>
            <rdf:li>saudável</rdf:li>
            <rdf:li>time</rdf:li>
          </rdf:Bag>
        </dc:subject>
      </cc:Work>
      <cc:License
         rdf:about="http://creativecommons.org/publicdomain/zero/1.0/">
        <cc:permits
           rdf:resource="http://creativecommons.org/ns#Reproduction" />
        <cc:permits
           rdf:resource="http://creativecommons.org/ns#Distribution" />
        <cc:permits
           rdf:resource="http://creativecommons.org/ns#DerivativeWorks" />
      </cc:License>
    </rdf:RDF>
  </metadata>
</svg>
