<?xml version="1.0" encoding="iso-8859-1"?>
<!-- Generator: Adobe Illustrator 19.0.0, SVG Export Plug-In . SVG Version: 6.00 Build 0)  -->
<svg version="1.1" id="Capa_1" xmlns="http://www.w3.org/2000/svg" xmlns:xlink="http://www.w3.org/1999/xlink" x="0px" y="0px"
	 viewBox="0 0 512 512" style="enable-background:new 0 0 512 512;" xml:space="preserve">
<path style="fill:#BF6015;" d="M116,70l15.44-46.32C134.16,15.51,141.81,10,150.42,10h211.16c8.61,0,16.26,5.51,18.98,13.68L396,70
	c11.05,0,20,8.95,20,20v40c-11.388,0-308.858,0-320,0V90C96,78.95,104.95,70,116,70z"/>
<polygon style="fill:#3D4370;" points="396,130 384.62,236 127.38,236 116,130 "/>
<path style="fill:#FFC478;" d="M384.62,236l-17.18,160.04l-0.33-0.04H144.89l-0.33,0.04L127.38,236H384.62z"/>
<path style="fill:#3D4370;" d="M367.44,396.04l-9.46,88.17c-1.13,10.13-9.69,17.79-19.88,17.79H173.9
	c-10.19,0-18.75-7.66-19.88-17.79l-9.46-88.17l0.33-0.04h222.22L367.44,396.04z"/>
<path style="fill:#BF6015;" d="M256,276c-33.14,0-60,17.91-60,40s26.86,40,60,40s60-17.91,60-40S289.14,276,256,276z"/>
<path d="M196,79.988c5.535,0,9.99-4.452,9.99-9.988c0-5.53-4.452-9.99-9.99-9.99c-5.53,0-9.99,4.452-9.99,9.99
	C186.01,75.535,190.464,79.988,196,79.988z"/>
<path d="M96,140h11.016c1.635,15.232,35.43,330.09,37.065,345.319C145.779,500.53,158.599,512,173.9,512h164.2
	c15.302,0,28.121-11.47,29.824-26.723c1.631-15.192,35.422-330.018,37.06-345.277H416c5.522,0,10-4.477,10-10V90
	c0-13.943-9.562-25.695-22.473-29.043l-13.479-40.435C385.962,8.247,374.521,0,361.58,0H150.42
	c-12.941,0-24.382,8.247-28.466,20.518l-13.481,40.439C95.562,64.305,86,76.057,86,90v40C86,135.523,90.478,140,96,140z
	 M358.465,386H153.536l-15.027-140h234.984L358.465,386z M338.1,492H173.9c-5.102,0-9.376-3.826-9.938-8.857L155.682,406h200.635
	l-8.276,77.101C347.476,488.174,343.201,492,338.1,492z M375.639,226H136.361l-9.231-86h257.74L375.639,226z M106,90
	c0-5.514,4.486-10,10-10h40.02c5.522,0,10-4.477,10-10s-4.478-10-10-10h-26.146l11.055-33.162c1.361-4.09,5.176-6.838,9.491-6.838
	h211.16c4.315,0,8.13,2.748,9.493,6.843L382.126,60H236.01c-5.522,0-10,4.477-10,10s4.478,10,10,10H396c5.514,0,10,4.486,10,10v30
	c-53.392,0-246.239,0-300,0V90z"/>
<path d="M256,366c39.252,0,70-21.962,70-50s-30.748-50-70-50s-70,21.962-70,50S216.748,366,256,366z M256,346
	c-21.291,0-39.981-8.58-47.02-20.1h94.039C295.981,337.42,277.291,346,256,346z M256,286c21.291,0,39.981,8.48,47.02,20h-94.04
	C216.019,294.48,234.709,286,256,286z"/>
<g>
</g>
<g>
</g>
<g>
</g>
<g>
</g>
<g>
</g>
<g>
</g>
<g>
</g>
<g>
</g>
<g>
</g>
<g>
</g>
<g>
</g>
<g>
</g>
<g>
</g>
<g>
</g>
<g>
</g>
</svg>
