<svg id="Capa_1" enable-background="new 0 0 512 512" height="512" viewBox="0 0 512 512" width="512" xmlns="http://www.w3.org/2000/svg"><g><g><g><g><path d="m301.205 444.996h148.001c29.157 0 52.793-23.636 52.793-52.793v-.001h-491.999c-.001 29.157 23.636 52.794 52.793 52.794h148" fill="#ff7b79"/></g></g><path d="m421.243 209.792c-37.098-51.07-97.293-84.275-165.244-84.275-112.724 0-204.104 91.381-204.104 204.104 0 4.992.18 9.942.532 14.844h407.144c.352-4.902.532-9.852.532-14.844 0-24.016-4.148-47.063-11.766-68.465" fill="#ccf5fc"/><path d="m432.017 183.913 15.855 43.174 42.848 15.976-42.848 15.975-15.855 43.174-15.854-43.174-42.848-15.975 42.848-15.976z" fill="#faf7f5"/><path d="m39.51 344.465h432.979v47.738h-432.979z" fill="#99ebfa"/><g><circle cx="256" cy="96.259" fill="#99ebfa" r="29.258"/></g></g><g><path d="m255.819 454.999c-4.235 0-8.107-2.787-9.47-6.79-1.285-3.773-.133-8.105 2.873-10.727 3.287-2.866 8.158-3.28 11.873-.98 3.543 2.194 5.381 6.538 4.489 10.606-.995 4.54-5.104 7.891-9.765 7.891z"/><path d="m502 382.203h-19.511v-37.738c0-5.522-4.478-10-10-10h-2.44c.036-1.618.054-3.234.054-4.844 0-22.048-3.325-43.712-9.892-64.511l34.002-12.678c3.913-1.459 6.507-5.194 6.507-9.37s-2.594-7.911-6.507-9.37l-38.539-14.369-14.271-38.856c-1.445-3.937-5.193-6.553-9.387-6.553s-7.941 2.616-9.387 6.553l-3.747 10.203c-17.866-20.892-39.754-38.362-64.072-51.034-20.635-10.753-43.077-18.051-66.157-21.609 4.169-6.233 6.602-13.721 6.602-21.767 0-21.647-17.611-39.259-39.258-39.259s-39.258 17.611-39.258 39.259c0 8.026 2.422 15.497 6.572 21.722-44.777 6.818-86.081 27.617-118.709 60.245-40.439 40.439-62.709 94.205-62.709 151.395 0 1.61.018 3.226.054 4.844h-2.44c-5.523 0-10 4.478-10 10v37.738h-19.507c-5.523 0-10 4.477-10 10 0 16.772 6.531 32.542 18.391 44.402 11.86 11.859 27.629 18.392 44.402 18.392h148c5.523 0 10-4.478 10-10s-4.477-10-10-10h-148c-11.431 0-22.177-4.451-30.259-12.534-5.67-5.67-9.553-12.651-11.366-20.26l469.652.001c-4.515 18.789-21.459 32.793-41.613 32.793h-148.002c-5.522 0-10 4.478-10 10s4.478 10 10 10h148.002c34.624 0 62.793-28.169 62.793-62.794 0-5.524-4.478-10.001-10-10.001zm-63.514-151.669c1.006 2.739 3.158 4.903 5.894 5.923l17.717 6.605-17.717 6.605c-2.735 1.02-4.888 3.184-5.894 5.923l-6.469 17.612-6.468-17.612c-1.006-2.739-3.158-4.903-5.894-5.923l-17.717-6.605 17.717-6.605c2.735-1.02 4.888-3.184 5.894-5.923l6.468-17.612zm-201.744-134.274c0-10.619 8.639-19.259 19.258-19.259s19.258 8.64 19.258 19.259-8.639 19.258-19.258 19.258c-10.619-.001-19.258-8.639-19.258-19.258zm-174.846 233.361c0-107.029 87.075-194.104 194.104-194.104 60.656 0 118.245 28.729 154.845 77.042l-2.484 6.764-38.539 14.369c-3.913 1.459-6.507 5.194-6.507 9.37s2.594 7.911 6.507 9.37l38.539 14.369 14.27 38.857c1.445 3.937 5.193 6.553 9.387 6.553s7.941-2.616 9.387-6.553l5.045-13.737c2.429 12.346 3.654 24.95 3.654 37.698 0 1.609-.02 3.226-.06 4.844h-388.089c-.039-1.616-.059-3.232-.059-4.842zm-12.386 24.844h412.979v27.738h-412.979z"/></g></g></svg>