<svg height="511pt" viewBox="0 0 511 511.99816" width="511pt" xmlns="http://www.w3.org/2000/svg"><path d="m502.496094 376v20c0 11.050781-8.949219 20-20 20h-451.996094c-11.050781 0-20-8.949219-20-20v-20c0-11.050781 8.949219-20 20-20h159.328125l6.671875 20h119.996094l6.671875-20h159.328125c11.050781 0 20 8.949219 20 20zm0 0" fill="#fff"/><path d="m466.289062 285.152344 16.207032 70.847656h-159.328125l-6.671875 20h-119.996094l-6.671875-20h-159.328125l16.207031-70.847656c2.230469-8.902344 10.230469-15.152344 19.410157-15.152344h380.761718c9.179688 0 17.179688 6.25 19.410156 15.152344zm0 0" fill="#ffde85"/><path d="m482.496094 416-16.207032 70.851562c-2.230468 8.898438-10.230468 15.148438-19.410156 15.148438h-380.761718c-9.179688 0-17.179688-6.25-19.410157-15.148438l-16.207031-70.851562zm0 0" fill="#ffde85"/><path d="m366.496094 150c0 55.230469-35.816406 120-80 120h-59.996094c-44.179688 0-80-64.769531-80-120 0-55.226562 35.820312-80 80-80 10.546875 0 20.628906 2.550781 29.847656 7.191406-.007812.019532-.007812.039063-.007812.058594l.160156.023438c10.835938-5.492188 21.386719-7.507813 32.527344-7.242188 43.011718.929688 77.46875 25.800781 77.46875 79.96875zm0 0" fill="#fe5f51"/><path d="m277.359375 29.863281c-15.53125 15.519531-19.78125 37.660157-20.859375 46.070313v1.339844l32.527344-7.242188c5.769531-2.949219 11.539062-6.820312 16.609375-11.890625 19.53125-19.519531 21.222656-48.136719 21.222656-48.136719s-29.980469.328125-49.5 19.859375zm0 0" fill="#a5dc69"/><path d="m196.5 323c5.519531 0 10-4.480469 10-10s-4.480469-10-10-10c-5.523438 0-10 4.480469-10 10s4.476562 10 10 10zm0 0"/><path d="m490.730469 347.160156-14.695313-64.238281c-.015625-.070313-.03125-.136719-.046875-.203125-3.351562-13.375-15.324219-22.71875-29.109375-22.71875h-114.894531c26.875-25.09375 44.511719-69.734375 44.511719-110 0-45.242188-23.199219-76.691406-62.019532-86.628906 20.304688-21.824219 22.289063-51.492188 22.363282-52.78125.164062-2.769532-.828125-5.480469-2.742188-7.488282-1.914062-2.007812-4.574218-3.1601558-7.351562-3.09765575-1.390625.01562495-34.3125.62890575-56.457032 22.78515575-5.066406 5.0625-9.074218 10.691407-12.242187 16.371094-8.113281-14.765625-21.601563-26.382812-38.386719-31.976562-5.238281-1.746094-10.902344 1.085937-12.648437 6.328125-1.746094 5.238281 1.085937 10.898437 6.324219 12.644531 16.691406 5.5625 28.773437 19.539062 32.183593 36.285156-6.203125-1.621094-12.5625-2.441406-19.019531-2.441406-53.179688 0-90 32.488281-90 90 0 40.261719 17.636719 84.902344 44.511719 110h-114.894531c-13.785157 0-25.757813 9.34375-29.109376 22.71875-.015624.066406-.03125.132812-.046874.199219l-14.699219 64.242187c-12.546875 3.585938-21.761719 15.152344-21.761719 28.839844v20c0 13.6875 9.214844 25.25 21.761719 28.839844l14.699219 64.238281c.015624.066406.03125.132813.046874.199219 3.351563 13.378906 15.320313 22.722656 29.109376 22.722656h380.757812c13.789062 0 25.757812-9.34375 29.109375-22.722656.019531-.066406.035156-.132813.050781-.199219l14.695313-64.238281c12.550781-3.589844 21.765625-15.152344 21.765625-28.839844v-20c0-13.683594-9.214844-25.253906-21.765625-28.839844zm-206.300781-310.230468c9.101562-9.101563 21.238281-13.316407 30.21875-15.265626-2.304688 8.640626-6.921876 20.25-16.082032 29.40625-3.371094 3.371094-7.394531 6.367188-11.992187 8.933594-.023438 0-.050781-.003906-.078125-.003906-5.613282 0-11.140625.640625-16.566406 1.867188 2.636718-8.058594 7.082031-17.523438 14.5-24.9375zm-127.929688 113.070312c0-63.175781 48.953125-70 70-70 8.5 0 16.789062 1.960938 24.65625 5.792969 2.945312 1.789062 6.707031 1.960937 9.792969.429687.023437-.011718.042969-.019531.066406-.03125 9.226563-4.671875 17.890625-6.355468 27.816406-6.160156 20.363281.445312 67.667969 8.15625 67.667969 69.96875 0 49.515625-32.300781 110-70 110h-60c-37.699219 0-70-60.484375-70-110zm-100.070312 137.496094c1.148437-4.417969 5.121093-7.496094 9.6875-7.496094h380.761718c4.570313 0 8.539063 3.078125 9.6875 7.496094l13.386719 58.503906h-146.785156c-4.304688 0-8.125 2.753906-9.484375 6.835938l-4.390625 13.164062h-105.589844l-4.390625-13.164062c-1.359375-4.082032-5.179688-6.835938-9.484375-6.835938h-146.785156zm400.136718 197.007812c-1.148437 4.417969-5.117187 7.496094-9.6875 7.496094h-380.761718c-4.566407 0-8.539063-3.078125-9.6875-7.496094l-13.386719-58.503906h426.90625zm35.929688-88.503906c0 5.515625-4.484375 10-10 10h-451.996094c-5.515625 0-10-4.484375-10-10v-20c0-5.511719 4.484375-10 10-10h152.121094l4.390625 13.164062c1.363281 4.082032 5.183593 6.835938 9.488281 6.835938h119.996094c4.304687 0 8.125-2.753906 9.488281-6.835938l4.390625-13.164062h152.066406c.015625 0 .03125.003906.046875.003906.007813 0 .015625-.003906.023438-.003906 5.507812.007812 9.984375 4.492188 9.984375 10zm0 0"/><path d="m236.5 323h79.996094c5.523437 0 10-4.476562 10-10s-4.476563-10-10-10h-79.996094c-5.523438 0-10 4.476562-10 10s4.476562 10 10 10zm0 0"/><path d="m316.496094 150c0 5.523438 4.480468 10 10 10 5.523437 0 10-4.476562 10-10 0-9.007812-.890625-22.21875-8.609375-32.855469-8.257813-11.375-22.183594-17.144531-41.390625-17.144531-5.519532 0-10 4.480469-10 10 0 5.523438 4.480468 10 10 10 25.09375 0 30 11 30 30zm0 0"/></svg>