<?xml version="1.0" encoding="UTF-8"?>
<svg viewBox="0 0 572.14288 523.30585" xmlns="http://www.w3.org/2000/svg">
 <defs>
  <linearGradient id="c" x1="73.14" x2="102.57" y1="324.7" y2="282.27" gradientUnits="userSpaceOnUse">
   <stop stop-color="#fff" stop-opacity="0" offset="0"/>
   <stop stop-color="#fff" stop-opacity=".72072" offset=".5"/>
   <stop stop-color="#fff" stop-opacity="0" offset="1"/>
  </linearGradient>
  <linearGradient id="b" x1="186.4" x2="197.07" y1="266.48" y2="276.12" gradientUnits="userSpaceOnUse">
   <stop stop-color="#fff" offset="0"/>
   <stop stop-color="#fff" stop-opacity=".49804" offset=".1956"/>
   <stop stop-color="#fff" stop-opacity="0" offset="1"/>
  </linearGradient>
  <linearGradient id="a" x1="268.5" x2="295.28" y1="222.46" y2="185.19" gradientUnits="userSpaceOnUse">
   <stop stop-color="#ac8a47" offset="0"/>
   <stop stop-color="#fff" offset=".5"/>
   <stop stop-color="#ac8a47" offset="1"/>
  </linearGradient>
 </defs>
 <g transform="translate(-40.714 -185.19)">
  <path transform="matrix(.98178,-.19002,0,1,0,0)" d="m94.897 274.25s254.26 1.9121 379.63 3.2023c9.6367 0.0992 17.382 3.5452 22.401 6.9697 36.285 24.759 18.16 12.002 96.362 66.936l23.665 327.88c0 27.111-25.779 48.937-57.8 48.937l-429.96-13.719c-72.91-62.561-87.724-67.166-87.724-94.277v-297.42c0-27.111 21.406-48.506 53.428-48.506z" fill="#4a0"/>
  <path d="m169.4 302.4s361.11-69.385 386.85-73.632c25.149-4.1501 54.882 26.137 54.882 53.248l-4.0406 282.31c0 27.111-25.209 53.744-56.523 59.716l-380.16 82.902c-14.709 1.8408-57.163-11.929-56.882-42.39 0.90652-98.309-0.65301-302.44-0.65301-302.44 0-27.111 25.209-53.744 56.523-59.716z" fill="#e55555"/>
  <path transform="matrix(.9818,-.18994,0,1,0,0)" d="m184.79 348.07h382.68c31.438 0 56.747 21.826 56.747 48.937v296.45c0 27.111-25.309 48.937-56.747 48.937h-382.68c-31.438 0-56.747-21.826-56.747-48.937v-296.45c0-27.111 25.309-48.937 56.747-48.937z" fill="#c83737"/>
  <path d="m41.195 307.72 85.127 57.578c4.1313-23.912 20.382-35.704 37.616-46.513l-83.468-58.883c-20.74 8.3605-35.684 25.128-39.275 47.818z" fill="url(#c)"/>
  <g transform="matrix(1.5489 -.0376 0 1.268 -172.87 -59.92)">
   <path d="m364.32 243.98-10.381-11.53 6e-3 -3.7474 25.692-4.4825s9.9234-1.8318 13.107 4.2525c3.3669 6.4345-2.1168 10.758-2.1168 10.758l-26.307 4.7492z"/>
   <path d="m364.32 243.99v-4.0749l-10.379-11.207v3.7546l10.379 11.527z" fill="#fff" fill-opacity=".51786"/>
  </g>
  <path d="m247.09 257.73c16.159-64.571 125.86-91.308 143.72-24.37l-6.7111-12.692c-29.502-60.225-124.63-37.798-150.28 22.449-0.63576 1.4933-2.2825 5.2168-0.71441 6.0776l9.794 10.544c-3.9898-2.0146 2.8636 1.3056 4.1914-2.0082z" fill="url(#a)"/>
  <g transform="matrix(1.5899 -.02011 0 1.3359 -111.57 -91.644)">
   <path d="m225.58 266.66-0.0106 3.4759-25.25 5.3125s-15.656 3.4974-17-5.5c-1.1733-7.8526 6.75-9.5 6.75-9.5l25.528-5.1949 9.9823 11.407z"/>
   <path d="m189.71 260.54c-6.0386 2.7197-4.8667 12.321 9.8398 11.785l-2.4846 3.625c-5.688 0.6028-12.635-0.16692-13.656-5.5456-0.89507-4.7148 1.3132-8.3012 6.301-9.8646h2.3e-4z" fill="url(#b)"/>
  </g>
  <path d="m390.81 233.37-14.315-12.261c-7.3736-18.615-19.451-23.057-25.444-25.277 25.572 3.8665 36.863 25.931 39.758 37.538z" fill="#6a552c"/>
 </g>
</svg>
