<svg enable-background="new 0 0 24 24" height="512" viewBox="0 0 24 24" width="512" xmlns="http://www.w3.org/2000/svg"><circle cx="9" cy="5" fill="#607d8b" r="5"/><path d="m14.15 12.091c-.291-.059-.592-.091-.9-.091h-8.5c-.308 0-.609.032-.9.091-.289.056-.566.142-.834.248h-.001c-1.761.695-3.015 2.405-3.015 4.411v3.5c0 .414.336.75.75.75h5.601 5.299 5.601c.414 0 .75-.336.75-.75v-3.5c-.001-2.311-1.662-4.237-3.851-4.659z" fill="#607d8b"/><circle cx="17" cy="18.5" fill="#4caf50" r="2"/><path d="m17 22c-1.93 0-3.5-1.57-3.5-3.5s1.57-3.5 3.5-3.5 3.5 1.57 3.5 3.5-1.57 3.5-3.5 3.5zm0-5.5c-1.103 0-2 .897-2 2s.897 2 2 2 2-.897 2-2-.897-2-2-2z"/><path d="m17 24c-.414 0-.75-.336-.75-.75v-2c0-.414.336-.75.75-.75s.75.336.75.75v2c0 .414-.336.75-.75.75z"/><path d="m17 16.5c-.414 0-.75-.336-.75-.75v-2c0-.414.336-.75.75-.75s.75.336.75.75v2c0 .414-.336.75-.75.75z"/><path d="m19.38 17.88c-.259 0-.511-.134-.65-.375-.207-.359-.084-.817.274-1.025l1.73-1c.358-.207.817-.084 1.025.274.207.359.084.817-.274 1.025l-1.73 1c-.118.069-.247.101-.375.101z"/><path d="m12.891 21.62c-.259 0-.511-.134-.65-.375-.207-.359-.084-.817.274-1.025l1.73-1c.358-.208.817-.084 1.025.274.207.359.084.817-.274 1.025l-1.73 1c-.119.069-.248.101-.375.101z"/><path d="m14.62 17.88c-.127 0-.257-.032-.375-.101l-1.73-1c-.358-.208-.481-.666-.274-1.025.208-.358.667-.481 1.025-.274l1.73 1c.358.208.481.666.274 1.025-.14.241-.392.375-.65.375z"/><path d="m21.109 21.62c-.127 0-.257-.032-.375-.101l-1.73-1c-.358-.208-.481-.666-.274-1.025.208-.358.667-.481 1.025-.274l1.73 1c.358.208.481.666.274 1.025-.139.241-.391.375-.65.375z"/><path d="m9 10c-2.757 0-5-2.243-5-5s2.243-5 5-5 5 2.243 5 5-2.243 5-5 5zm0-8.5c-1.93 0-3.5 1.57-3.5 3.5s1.57 3.5 3.5 3.5 3.5-1.57 3.5-3.5-1.57-3.5-3.5-3.5z"/><path d="m10 21h-9.25c-.414 0-.75-.336-.75-.75v-3.5c0-2.619 2.131-4.75 4.75-4.75h8.5c.414 0 .75.336.75.75s-.336.75-.75.75h-8.5c-1.792 0-3.25 1.458-3.25 3.25v2.75h8.5c.414 0 .75.336.75.75s-.336.75-.75.75z"/></svg>