<?xml version="1.0" encoding="iso-8859-1"?>
<!-- Generator: Adobe Illustrator 19.0.0, SVG Export Plug-In . SVG Version: 6.00 Build 0)  -->
<svg version="1.1" id="Capa_1" xmlns="http://www.w3.org/2000/svg" xmlns:xlink="http://www.w3.org/1999/xlink" x="0px" y="0px"
	 viewBox="0 0 511.999 511.999" style="enable-background:new 0 0 511.999 511.999;" xml:space="preserve">
<path style="fill:#C7A0CF;" d="M219.345,97.588V84.406H88.297v13.183c0,18.338-5.303,36.285-15.269,51.679l-15.23,23.523
	c-9.966,15.393-15.269,33.34-15.269,51.679v257.765c0,12.304,9.974,22.278,22.278,22.278h178.026
	c12.304,0,22.278-9.974,22.278-22.278V224.469c0-18.338-5.303-36.285-15.269-51.679l-15.23-23.523
	C224.647,133.873,219.345,115.926,219.345,97.588z"/>
<path style="fill:#B18CBA;" d="M249.843,172.79l-15.23-23.523c-9.966-15.394-15.269-33.34-15.269-51.679V84.406h-51.252v13.183
	c0,18.338,5.303,36.285,15.269,51.679l15.23,23.523c9.966,15.394,15.269,33.34,15.269,51.679v257.765
	c0,12.304-9.974,22.278-22.278,22.278h51.252c12.304,0,22.278-9.974,22.278-22.278V224.469
	C265.112,206.13,259.81,188.184,249.843,172.79z"/>
<path style="fill:#7F7FBF;" d="M216.105,106.281H91.537c-11.193,0-20.267-9.074-20.267-20.267v-58.26
	c0-11.193,9.074-20.267,20.267-20.267h124.568c11.193,0,20.267,9.074,20.267,20.267v58.26
	C236.372,97.208,227.298,106.281,216.105,106.281z"/>
<path style="fill:#6D6DAA;" d="M216.105,7.488h-51.252c11.193,0,20.267,9.074,20.267,20.267v58.26
	c0,11.193-9.074,20.267-20.267,20.267h51.252c11.193,0,20.267-9.074,20.267-20.267v-58.26
	C236.372,16.562,227.298,7.488,216.105,7.488z"/>
<rect x="42.581" y="244.77" style="fill:#73E7E6;" width="222.48" height="177.92"/>
<rect x="213.86" y="244.77" style="fill:#65D1CB;" width="51.2" height="177.92"/>
<path style="fill:#F77FA4;" d="M397.053,8.298L397.053,8.298c-0.001,0-0.003,0-0.004,0s-0.003,0-0.004,0l0,0
	c-48.191,0.518-79.891,39.179-72.417,94.729c2.524,18.762,11.527,37.766,22.763,53.75c15.894,22.611,23.938,49.805,22.677,77.414
	l-10.513,230.063c-1.091,21.455,16.011,39.449,37.494,39.449l0,0c21.483,0,38.585-17.993,37.494-39.449L424.03,234.191
	c-1.262-27.609,6.783-54.803,22.677-77.414c11.236-15.985,20.239-34.988,22.763-53.75C476.944,47.477,445.245,8.816,397.053,8.298z
	 M397.049,479.577c-7.779,0-14.085-6.306-14.085-14.085s6.306-14.085,14.085-14.085s14.085,6.306,14.085,14.085
	S404.828,479.577,397.049,479.577z"/>
<path style="fill:#FFFFFF;" d="M209.162,315.929h-34.829c-2.09,0-3.785-1.695-3.785-3.785v-34.829c0-2.09-1.695-3.785-3.785-3.785
	h-21.452c-2.09,0-3.785,1.695-3.785,3.785v34.829c0,2.09-1.695,3.785-3.785,3.785h-34.829c-2.09,0-3.785,1.695-3.785,3.785v21.452
	c0,2.09,1.695,3.785,3.785,3.785h34.829c2.09,0,3.785,1.695,3.785,3.785v34.829c0,2.09,1.695,3.785,3.785,3.785h21.452
	c2.09,0,3.785-1.695,3.785-3.785v-34.829c0-2.09,1.695-3.785,3.785-3.785h34.829c2.09,0,3.785-1.695,3.785-3.785v-21.452
	C212.947,317.624,211.253,315.929,209.162,315.929z"/>
<path style="fill:#DD6FA1;" d="M397.326,8.304c29.807,13.469,46.894,46.441,41.194,89.371c-2.524,19.012-11.527,38.27-22.763,54.468
	c-0.086,0.124-0.172,0.249-0.258,0.373c-12.144,17.642-18.426,38.662-18.426,60.079v106.528l6.028,133.665
	c4.747,2.265,8.035,7.094,8.035,12.703c0,6.3-4.137,11.631-9.842,13.431c-1.076,2.927-2.501,5.685-4.22,8.225V503.7
	c21.472-0.013,38.562-18,37.472-39.448L424.03,234.191c-1.262-27.61,6.783-54.803,22.677-77.415
	c11.236-15.984,20.239-34.988,22.763-53.75C476.93,47.582,445.364,8.965,397.326,8.304z"/>
<path d="M105.439,84.717c4.136,0,7.488-3.353,7.488-7.488V34.963c0-4.136-3.352-7.488-7.488-7.488s-7.488,3.353-7.488,7.488v42.266
	C97.951,81.364,101.303,84.717,105.439,84.717z"/>
<path d="M137.693,84.717c4.136,0,7.488-3.353,7.488-7.488V34.963c0-4.136-3.352-7.488-7.488-7.488s-7.488,3.353-7.488,7.488v42.266
	C130.205,81.364,133.557,84.717,137.693,84.717z"/>
<path d="M169.948,84.717c4.136,0,7.488-3.353,7.488-7.488V34.963c0-4.136-3.352-7.488-7.488-7.488s-7.488,3.353-7.488,7.488v42.266
	C162.46,81.364,165.812,84.717,169.948,84.717z"/>
<path d="M202.202,84.717c4.136,0,7.488-3.353,7.488-7.488V34.963c0-4.136-3.352-7.488-7.488-7.488s-7.488,3.353-7.488,7.488v42.266
	C194.714,81.364,198.066,84.717,202.202,84.717z"/>
<path d="M240.9,145.197c-6.655-10.279-11.09-21.955-12.991-34.07c9.417-4.444,15.951-14.028,15.951-25.113v-58.26
	C243.86,12.45,231.409,0,216.105,0H91.537C76.233,0,63.782,12.45,63.782,27.754v58.261c0,11.084,6.534,20.668,15.951,25.112
	c-1.9,12.116-6.335,23.791-12.991,34.07l-15.23,23.524c-10.775,16.644-16.471,35.921-16.471,55.748v88.802
	c0,4.136,3.352,7.488,7.488,7.488s7.488-3.353,7.488-7.488v-61.01h207.607v61.634c0,4.135,3.352,7.488,7.488,7.488
	c4.136,0,7.488-3.353,7.488-7.488v-89.426c0-19.828-5.696-39.105-16.471-55.748L240.9,145.197z M78.759,86.015V27.754
	c0-7.046,5.732-12.778,12.779-12.778h124.568c7.046,0,12.779,5.732,12.779,12.778v58.261c0,6.201-4.441,11.38-10.309,12.534
	c-0.059,0.009-0.119,0.012-0.179,0.023c-0.41,0.074-0.8,0.129-1.177,0.165c-0.368,0.032-0.738,0.056-1.114,0.056H91.537
	c-0.376,0-0.746-0.024-1.114-0.056c-0.377-0.037-0.768-0.092-1.179-0.166c-0.062-0.011-0.124-0.014-0.186-0.024
	C83.195,97.39,78.759,92.212,78.759,86.015z M257.624,237.284H50.017v-12.816c0-16.932,4.864-33.395,14.067-47.609l15.23-23.523
	c7.735-11.945,12.917-25.5,15.17-39.567h118.675c2.253,14.068,7.435,27.621,15.169,39.567l15.23,23.523
	c9.202,14.213,14.067,30.676,14.067,47.609v12.816H257.624z"/>
<path d="M265.112,341.725c-4.136,0-7.488,3.353-7.488,7.488v65.989H50.017v-66.239c0-4.136-3.352-7.488-7.488-7.488
	s-7.488,3.353-7.488,7.488v133.269c0,16.413,13.354,29.767,29.767,29.767h178.026c16.413,0,29.766-13.353,29.766-29.767v-133.02
	C272.6,345.078,269.248,341.725,265.112,341.725z M257.624,482.233c0,8.155-6.635,14.79-14.79,14.79H64.808
	c-8.156,0-14.791-6.635-14.791-14.79v-52.055h207.607V482.233z"/>
<path d="M166.763,266.042h-21.451c-6.216,0-11.273,5.057-11.273,11.273v31.126h-31.126c-6.216,0-11.273,5.057-11.273,11.273v21.451
	c0,6.216,5.057,11.273,11.273,11.273h31.126v31.126c0,6.216,5.057,11.273,11.273,11.273h21.451c6.216,0,11.273-5.057,11.273-11.273
	v-31.126h31.125c6.216,0,11.273-5.057,11.273-11.273v-21.451c0-6.216-5.057-11.273-11.273-11.273h-31.125v-31.126
	C178.037,271.099,172.979,266.042,166.763,266.042z M205.459,323.418v14.045h-31.125c-6.216,0-11.273,5.057-11.273,11.273v31.126
	h-14.045v-31.126c0-6.216-5.057-11.273-11.273-11.273h-31.126v-14.045h31.126c6.216,0,11.273-5.057,11.273-11.273v-31.126h14.045
	v31.126c0,6.216,5.057,11.273,11.273,11.273H205.459z"/>
<path d="M362.587,233.849L356.466,367.8c-0.189,4.131,3.007,7.633,7.138,7.822c0.117,0.005,0.233,0.008,0.348,0.008
	c3.978,0,7.291-3.132,7.474-7.146l6.121-133.951c1.325-28.989-7.209-58.132-24.03-82.062
	c-11.709-16.657-19.333-34.571-21.469-50.442c-3.494-25.974,2.106-48.978,15.771-64.774c11.953-13.818,28.99-21.242,49.189-21.468
	c32.998,0.37,57.617,20.64,64.251,52.907c0.834,4.051,4.792,6.661,8.843,5.826c4.05-0.833,6.659-4.792,5.827-8.843
	c-3.958-19.245-13.372-35.473-27.227-46.932C434.774,7.225,416.941,1.023,397.134,0.81l0,0c-0.071-0.001-0.141-0.001-0.209,0
	c-24.342,0.272-45.803,9.734-60.432,26.645c-16.512,19.088-23.361,46.281-19.286,76.569c3.14,23.337,14.816,43.91,24.058,57.058
	C356.189,182.314,363.761,208.156,362.587,233.849z"/>
<path d="M375.476,465.492c0,11.895,9.678,21.573,21.573,21.573s21.572-9.677,21.572-21.573s-9.677-21.573-21.572-21.573
	S375.476,453.597,375.476,465.492z M397.049,458.896c3.637,0,6.596,2.959,6.596,6.596s-2.959,6.596-6.596,6.596
	c-3.638,0-6.597-2.959-6.597-6.596S393.411,458.896,397.049,458.896z"/>
<path d="M470.469,95.605c-4.095-0.546-7.869,2.324-8.419,6.423c-2.136,15.871-9.76,33.785-21.469,50.442
	c-16.821,23.931-25.356,53.075-24.031,82.062l10.516,230.101c0.422,8.307-2.501,16.202-8.231,22.231s-13.467,9.349-21.785,9.349
	s-16.055-3.32-21.785-9.349s-8.653-13.924-8.229-22.269l2.736-59.882c0.189-4.131-3.007-7.633-7.138-7.822
	c-4.166-0.201-7.634,3.008-7.823,7.139l-2.734,59.843c-0.633,12.446,3.747,24.275,12.332,33.309
	c8.586,9.033,20.178,14.008,32.641,14.008c12.463,0,24.055-4.975,32.641-14.009c8.585-9.033,12.965-20.862,12.334-33.27
	L431.51,233.849c-1.174-25.692,6.399-51.534,21.323-72.766c9.242-13.148,20.919-33.72,24.058-57.058
	C477.443,99.926,474.568,96.156,470.469,95.605z"/>
<g>
</g>
<g>
</g>
<g>
</g>
<g>
</g>
<g>
</g>
<g>
</g>
<g>
</g>
<g>
</g>
<g>
</g>
<g>
</g>
<g>
</g>
<g>
</g>
<g>
</g>
<g>
</g>
<g>
</g>
</svg>
