<?xml version="1.0" encoding="iso-8859-1"?>
<!-- Generator: Adobe Illustrator 19.0.0, SVG Export Plug-In . SVG Version: 6.00 Build 0)  -->
<svg version="1.1" id="Capa_1" xmlns="http://www.w3.org/2000/svg" xmlns:xlink="http://www.w3.org/1999/xlink" x="0px" y="0px"
	 viewBox="0 0 511.999 511.999" style="enable-background:new 0 0 511.999 511.999;" xml:space="preserve">
<path style="fill:#A4D9F4;" d="M301.488,21.379h-13.501c-11.125,0-74.615,0-87.557,0c-1.126,0-1.591,1.443-0.677,2.101
	c4.26,3.06,7.622,6.08,7.622,11.855c0,6.379-4.387,9.53-7.591,11.831c-12.407,8.911,7.591,7.775,7.591,21.401
	c0,13.519-19.878,12.577-7.591,21.4c3.203,2.301,7.591,5.452,7.591,11.831c0,13.521-19.871,12.577-7.591,21.396
	c3.203,2.3,7.591,5.45,7.591,11.829c0,10.608-11.567,11.828-11.567,16.611c0,1.909,1.496,3,3.093,3c13.155,0,78.681,0,90.245,0
	h13.501V22.539C302.647,21.898,302.128,21.379,301.488,21.379z"/>
<path style="fill:#83C7E2;" d="M228.989,151.632c0-4.782,11.567-6.002,11.567-16.611c0-6.378-4.387-9.529-7.591-11.829
	c-12.281-8.819,7.591-7.875,7.591-21.397c0-6.378-4.387-9.53-7.591-11.831c-12.288-8.823,7.591-7.881,7.591-21.4
	c0-13.625-19.997-12.49-7.591-21.401c3.203-2.301,7.591-5.452,7.591-11.831c0-5.774-3.361-8.794-7.622-11.855
	c-0.914-0.657-0.449-2.101,0.677-2.101c-14.754,0-28.007,0-33.18,0c-1.126,0-1.591,1.443-0.677,2.101
	c4.26,3.06,7.622,6.08,7.622,11.855c0,6.379-4.387,9.53-7.591,11.831c-12.407,8.911,7.591,7.775,7.591,21.401
	c0,13.519-19.878,12.577-7.591,21.4c3.203,2.301,7.591,5.452,7.591,11.831c0,13.521-19.871,12.577-7.591,21.397
	c3.203,2.3,7.591,5.45,7.591,11.829c0,10.608-11.567,11.829-11.567,16.611c0,1.909,1.496,3,3.093,3c5.153,0,18.345,0,33.18,0
	C230.485,154.632,228.989,153.541,228.989,151.632z"/>
<path style="fill:#F94A46;" d="M301.995,7.513c-7.261,0.342-12.849,6.596-12.849,13.867v194.662c0,3.353-1.681,6.482-4.476,8.335
	l-15.39,10.195c-4.987,3.303-7.986,8.887-7.987,14.869v227.635c0,15.403,12.698,27.841,28.197,27.417
	c14.939-0.409,26.657-13.042,26.657-27.987c0-22.079,0-437.359,0-455.505C316.148,13.325,309.748,7.148,301.995,7.513z"/>
<path style="fill:#EA3B3B;" d="M275.138,500.886c8.386-4.849,13.989-14.057,13.989-24.384c0-12.089,0-142.048,0-260.161
	c-0.098,3.237-1.747,6.237-4.457,8.034l-15.39,10.195c-4.987,3.303-7.986,8.887-7.987,14.869v227.635
	C261.294,487.275,266.873,496.162,275.138,500.886z"/>
<rect x="261.289" y="267.289" style="fill:#EFEFEF;" width="54.854" height="27.427"/>
<rect x="261.289" y="294.711" style="fill:#CCCCCC;" width="54.854" height="27.427"/>
<rect x="261.289" y="267.289" style="fill:#D6D8D8;" width="27.834" height="27.427"/>
<rect x="261.289" y="294.711" style="fill:#B7B7B7;" width="27.834" height="27.427"/>
<path d="M264.28,52.33h-31.113c-4.143,0-7.501,3.357-7.501,7.501s3.357,7.501,7.501,7.501h31.113c4.143,0,7.501-3.357,7.501-7.501
	S268.423,52.33,264.28,52.33z"/>
<path d="M264.28,80.505h-31.113c-4.143,0-7.501,3.357-7.501,7.501s3.357,7.501,7.501,7.501h31.113c4.143,0,7.501-3.357,7.501-7.501
	C271.781,83.863,268.423,80.505,264.28,80.505z"/>
<path d="M264.28,108.68h-31.113c-4.143,0-7.501,3.357-7.501,7.501c0,4.143,3.357,7.501,7.501,7.501h31.113
	c4.143,0,7.501-3.357,7.501-7.501C271.781,112.037,268.423,108.68,264.28,108.68z"/>
<path d="M316.171,144.631c4.143,0,7.501-3.357,7.501-7.501V20.998c0-5.713-2.371-11.253-6.506-15.197
	c-10.767-10.273-28.817-6.485-34.154,8.078h-16.786c-4.142,0-7.501,3.357-7.501,7.501s3.358,7.501,7.501,7.501h15.443v118.252
	h-71.022c6.253-7.806,6.471-20.129-4.688-28.724c3.704-2.854,8.941-7.915,8.941-16.612c0-8.7-5.236-13.76-8.942-16.615
	c3.705-2.854,8.942-7.915,8.942-16.614c0-8.701-5.238-13.761-8.943-16.616c8.674-6.682,10.522-15.556,7.87-23.07h17.397
	c4.143,0,7.501-3.357,7.501-7.501s-3.357-7.501-7.501-7.501h-30.77c-8.372,0-11.899,10.77-5.02,15.717
	c3.404,2.446,4.464,3.557,4.464,5.738c0,2.183-1.061,3.293-4.467,5.739c-2.996,2.152-7.101,5.101-7.101,10.876
	s4.104,8.725,7.103,10.878c3.405,2.445,4.465,3.556,4.465,5.738c0,5.675-11.567,6.698-11.567,16.615
	c0,9.952,11.567,10.885,11.567,16.614c0,5.674-11.567,6.698-11.567,16.612c0,9.962,11.567,10.878,11.567,16.612
	c0,5.668-11.567,6.707-11.567,16.611c0,6.025,4.78,10.501,10.594,10.501h82.745c-0.415,55.109,1.005,54.583-1.117,55.988
	l-15.392,10.196c-7.104,4.706-11.344,12.602-11.344,21.121c0,23.983,0,149.516,0,173.896c0,4.143,3.358,7.501,7.501,7.501
	c4.143,0,7.501-3.357,7.501-7.501V329.64h39.854v146.861c0,11.006-8.687,20.196-19.361,20.489
	c-11.278,0.324-20.491-8.725-20.491-19.918v-18.736c0-4.143-3.357-7.501-7.501-7.501c-4.142,0-7.501,3.357-7.501,7.501v18.736
	c0,19.623,16.124,35.44,35.903,34.913c18.722-0.513,33.952-16.431,33.952-35.484c0-18.149,0-286.661,0-304.369
	c0-4.143-3.357-7.501-7.501-7.501c-4.143,0-7.501,3.357-7.501,7.501v87.652h-39.854c0.684-6.735-2.235-14.417,4.627-18.963
	l15.392-10.195c4.904-3.25,7.834-8.703,7.834-14.587c0-9.526,0-185.364,0-194.662c0-3.366,2.558-6.226,5.7-6.373
	c3.426-0.177,6.3,2.558,6.3,5.992V137.13C308.67,141.274,312.027,144.631,316.171,144.631z M308.67,314.64h-39.854v-12.426h39.854
	V314.64z M308.67,274.787v12.427h-39.854v-12.427H308.67z"/>
<g>
</g>
<g>
</g>
<g>
</g>
<g>
</g>
<g>
</g>
<g>
</g>
<g>
</g>
<g>
</g>
<g>
</g>
<g>
</g>
<g>
</g>
<g>
</g>
<g>
</g>
<g>
</g>
<g>
</g>
</svg>
