<svg height="512pt" viewBox="0 -28 512 512" width="512pt" xmlns="http://www.w3.org/2000/svg"><path d="m384.378906 93.765625h57.855469v67.296875h-57.855469zm0 0" fill="#82dfed"/><path d="m329.914062 93.765625h54.464844v67.296875h-54.464844zm0 0" fill="#f4f4f4"/><path d="m442.234375 93.765625h55.96875v67.296875h-55.96875zm0 0" fill="#f4f4f4"/><path d="m346.835938 93.765625c-11.441407 0-20.714844-9.277344-20.714844-20.722656 0-11.441407 9.277344-20.71875 20.714844-20.71875h5.671874c-1.203124-11.253907 2.5-22.933594 11.125-31.5625 5.726563-5.726563 13.0625-9.367188 20.460938-10.761719-2.289062 12.164062 1.007812 25.296875 10.417969 34.707031 3.222656 3.226563 6.875 5.765625 10.773437 7.617188h76c11.441406 0 20.714844 9.277343 20.714844 20.71875 0 11.445312-9.273438 20.722656-20.714844 20.722656zm0 0" fill="#f9c0ca"/><path d="m329.914062 161.0625-28.394531-16.128906c-31.59375-17.183594-66.988281-26.183594-102.957031-26.183594h-188.5625v44.867188h183.949219c35.386719 0 70.230469 8.710937 101.449219 25.371093l31.753906 16.9375h171.050781v-44.863281zm0 0" fill="#f48b93"/><path d="m512 73.042969c0-16.9375-13.777344-30.71875-30.714844-30.71875h-73.566406c-2.234375-1.273438-4.292969-2.839844-6.136719-4.6875-6.59375-6.59375-9.457031-16.234375-7.660156-25.785157.609375-3.246093-.417969-6.585937-2.757813-8.921874-2.332031-2.335938-5.667968-3.367188-8.917968-2.757813-9.667969 1.820313-18.789063 6.621094-25.6875 13.519531-7.898438 7.902344-12.738282 18.070313-13.964844 28.925782-14.9375 2.074218-26.472656 14.929687-26.472656 30.425781 0 6.035156 1.75 11.667969 4.765625 16.421875-.621094 1.300781-.96875 2.761718-.96875 4.300781v50.117187l-13.457031-7.644531c-.054688-.03125-.109376-.0625-.164063-.089843-32.957031-17.921876-70.210937-27.394532-107.730469-27.394532h-188.566406c-5.523438 0-10 4.476563-10 10v44.863282c0 5.523437 4.476562 10 10 10h183.949219c33.625 0 67.078125 8.367187 96.746093 24.191406l31.753907 16.941406c1.449219.773438 3.0625 1.175781 4.707031 1.175781h171.046875c5.523437 0 10-4.476562 10-10v-112.160156c0-1.539063-.347656-3-.96875-4.300781 3.015625-4.753906 4.765625-10.386719 4.765625-16.421875zm-23.796875 30.722656v47.296875h-35.96875v-47.296875zm-93.824219 47.296875v-47.296875h37.855469v47.296875zm-54.464844-47.296875h34.464844v47.296875h-34.464844zm6.921876-41.441406h5.671874c2.835938 0 5.539063-1.203125 7.433594-3.316407 1.898438-2.109374 2.808594-4.925781 2.507813-7.746093-.929688-8.710938 2.078125-17.25 8.253906-23.429688 1.011719-1.011719 2.105469-1.949219 3.265625-2.800781 1.550781 10.070312 6.183594 19.460938 13.46875 26.75 3.964844 3.964844 8.527344 7.1875 13.554688 9.578125 1.34375.636719 2.808593.964844 4.292968.964844h76c5.90625 0 10.714844 4.808593 10.714844 10.722656 0 5.910156-4.808594 10.71875-10.714844 10.71875h-134.449218c-5.90625 0-10.714844-4.808594-10.714844-10.71875 0-5.914063 4.808594-10.722656 10.714844-10.722656zm141.367187 133.601562h-158.546875l-29.546875-15.761719c-32.554687-17.367187-69.261719-26.546874-106.160156-26.546874h-173.949219v-24.867188h178.5625c34.164062 0 68.082031 8.617188 98.101562 24.921875l28.1875 16.015625c1.296876.761719 2.785157 1.242188 4.371094 1.351562.035156 0 .074219.003907.113282.003907.027343.003906.058593.003906.089843.007812.066407 0 .136719.003907.207031.007813h.054688c.078125.003906.152344.003906.226562.003906h158.289063zm0 0"/><path d="m449.871094 298.65625h52.042968v62.4375h-52.042968zm0 0" fill="#fdf29e"/><path d="m51.722656 225.882812v207.988282l343.5-20.8125v-166.363282zm0 0" fill="#82dfed"/><path d="m395.222656 246.695312v166.363282l54.648438-51.964844v-62.4375zm0 0" fill="#4e7ba6"/><path d="m10.085938 212.871094h41.636718v234.007812h-41.636718zm0 0" fill="#fdf29e"/><path d="m501.914062 288.65625h-48.050781l-51.753906-49.207031c-.011719-.015625-.023437-.027344-.039063-.039063-.03125-.027344-.058593-.054687-.089843-.082031-.011719-.011719-.027344-.027344-.039063-.039063-.121094-.109374-.246094-.214843-.375-.320312-.007812-.007812-.015625-.015625-.019531-.019531-.046875-.035157-.089844-.070313-.132813-.105469-.003906-.003906-.007812-.007812-.011718-.007812-1.511719-1.191407-3.382813-1.957032-5.429688-2.109376-.03125-.003906-.058594-.007812-.085937-.007812-.019531 0-.039063-.003906-.0625-.003906l-334.101563-20.246094v-3.597656c0-5.519532-4.480468-10-10-10h-41.636718c-5.523438 0-10.0000005 4.480468-10.0000005 10v234.007812c0 5.523438 4.4765625 10 10.0000005 10h41.636718c5.519532 0 10-4.476562 10-10v-3.59375l334.101563-20.246094c.027343 0 .050781-.003906.074219-.003906.023437 0 .042968-.003906.0625-.003906.0625-.003906.125-.011719.1875-.015625.011718-.003906.019531-.003906.027343-.003906 1.957031-.1875 3.738281-.929688 5.195313-2.070313 0 0 .003906 0 .007812-.003906l.175782-.140625c.003906-.007813.011718-.011719.019531-.019531.054687-.042969.105469-.085938.15625-.128906.011719-.011719.023437-.023438.035156-.03125.046875-.042969.09375-.082032.140625-.125.015625-.011719.03125-.027344.042969-.039063.046875-.039063.089843-.082031.128906-.121094.011719-.007812.023437-.015625.03125-.027343l51.753906-49.210938h48.050781c5.523438 0 10-4.476562 10-10v-62.4375c0-5.523438-4.476562-10-10-10zm-460.191406 148.222656h-21.636718v-214.007812h21.636718zm20-200.371094 323.496094 19.601563v147.535156l-323.496094 19.601563zm343.5 33.492188 34.648438 32.949219v53.855469l-34.648438 32.945312zm86.691406 81.09375h-32.042968v-42.4375h32.042968zm0 0"/><path d="m92.199219 394.847656c-.648438 0-1.308594-.058594-1.949219-.1875-.640625-.132812-1.269531-.320312-1.878906-.570312-.601563-.25-1.179688-.5625-1.722656-.921875-.546876-.371094-1.058594-.789063-1.519532-1.25-1.859375-1.859375-2.929687-4.429688-2.929687-7.070313 0-.648437.070312-1.308594.199219-1.949218.121093-.640626.320312-1.269532.570312-1.871094.25-.609375.550781-1.1875.910156-1.730469.371094-.546875.792969-1.058594 1.25-1.519531.460938-.457032.972656-.878906 1.519532-1.238282.542968-.359374 1.121093-.671874 1.722656-.921874.609375-.25 1.238281-.4375 1.878906-.570313 3.25-.648437 6.699219.410156 9.019531 2.730469.460938.460937.878907.972656 1.242188 1.519531.359375.542969.667969 1.121094.917969 1.730469.25.601562.441406 1.230468.570312 1.871094.128906.640624.199219 1.300781.199219 1.949218 0 .652344-.070313 1.3125-.199219 1.960938-.128906.628906-.320312 1.261718-.570312 1.871094-.25.597656-.558594 1.179687-.917969 1.71875-.363281.550781-.78125 1.058593-1.242188 1.519531-1.859375 1.863281-4.441406 2.929687-7.070312 2.929687zm0 0"/><path d="m324.332031 394.851562h-193.878906c-5.523437 0-10-4.476562-10-10 0-5.523437 4.476563-10 10-10h193.878906c5.523438 0 10 4.476563 10 10 0 5.523438-4.476562 10-10 10zm0 0"/></svg>